<?xml version="1.0" standalone="no"?>
<!DOCTYPE svg PUBLIC "-//W3C//DTD SVG 20010904//EN"
 "http://www.w3.org/TR/2001/REC-SVG-20010904/DTD/svg10.dtd">
<svg version="1.0" xmlns="http://www.w3.org/2000/svg"
 width="534.000000pt" height="534.000000pt" viewBox="0 0 534.000000 534.000000"
 preserveAspectRatio="xMidYMid meet">
<metadata>
Created by potrace 1.14, written by Peter Selinger 2001-2017
</metadata>
<g transform="translate(0.000000,534.000000) scale(0.100000,-0.100000)"
fill="#000000" stroke="none">
<path d="M0 2670 l0 -2670 2670 0 2670 0 0 2670 0 2670 -2670 0 -2670 0 0
-2670z m2890 2357 c45 -3 76 -10 78 -17 3 -8 7 -9 11 -2 4 7 29 6 76 -4 39 -8
78 -15 88 -15 9 0 17 -3 17 -7 0 -4 23 -8 50 -10 28 -1 81 -13 118 -26 37 -13
93 -31 125 -40 31 -9 57 -21 57 -26 0 -5 7 -7 15 -4 8 4 15 1 15 -5 0 -6 9
-11 20 -11 11 0 20 -4 20 -9 0 -6 9 -9 20 -8 16 1 224 -96 240 -113 3 -3 22
-14 43 -25 22 -11 50 -30 63 -42 14 -13 28 -23 33 -23 9 0 95 -62 99 -72 2 -5
10 -8 18 -8 8 0 14 -4 14 -8 0 -5 11 -15 25 -22 13 -7 22 -17 19 -22 -3 -4 2
-8 11 -8 21 0 318 -297 310 -310 -3 -5 1 -10 9 -10 14 0 53 -42 59 -64 1 -5
14 -22 30 -37 15 -15 27 -34 27 -43 0 -8 9 -20 20 -26 11 -6 20 -15 20 -19 0
-5 12 -27 26 -49 15 -22 27 -44 27 -49 0 -4 7 -14 14 -21 18 -18 16 -32 -3
-32 -8 0 -12 -5 -9 -10 4 -6 15 -8 26 -5 14 5 17 3 13 -10 -4 -10 -2 -15 6
-13 8 2 18 -12 24 -32 5 -19 16 -41 24 -49 21 -21 82 -161 82 -187 0 -9 7 -22
16 -31 8 -9 13 -21 10 -29 -3 -7 -1 -14 3 -16 13 -5 73 -207 66 -219 -4 -5 -1
-16 5 -24 6 -8 9 -23 5 -35 -3 -11 -2 -20 3 -20 14 0 21 -45 10 -64 -6 -11
-17 -15 -28 -11 -10 3 -22 1 -25 -6 -6 -8 -10 -8 -16 2 -6 10 -12 8 -28 -10
-15 -17 -28 -22 -47 -18 -15 2 -39 1 -55 -3 -15 -5 -72 -11 -126 -15 -105 -8
-117 -11 -107 -27 5 -8 124 -4 184 7 9 2 43 6 75 10 33 4 65 12 72 17 7 5 17
7 23 3 5 -3 16 -3 23 2 6 4 26 8 44 9 38 1 39 0 53 -166 19 -216 8 -463 -27
-624 l-17 -79 -16 62 c-10 34 -26 72 -37 84 -10 12 -29 58 -42 101 -12 44 -33
103 -47 131 -20 43 -24 67 -24 142 0 122 0 122 -162 107 l-77 -7 -8 44 c-4 24
-6 48 -5 53 2 5 -9 21 -23 36 -16 16 -27 41 -29 63 -2 20 -11 48 -21 63 -14
21 -18 55 -21 179 -2 84 -13 215 -24 291 -35 238 -142 572 -208 647 -29 33
-105 19 -123 -24 -61 -149 95 -883 221 -1040 30 -38 46 -81 41 -112 -1 -10 2
-24 8 -31 6 -7 13 -43 16 -81 4 -38 9 -73 12 -78 3 -5 -7 -6 -24 -3 -22 5 -36
2 -54 -13 -21 -17 -24 -28 -29 -123 -3 -58 -10 -111 -17 -119 -6 -8 -18 -52
-27 -99 -20 -113 -35 -169 -52 -203 -8 -16 -14 -37 -14 -48 0 -21 58 -165 98
-244 26 -51 72 -188 72 -215 0 -8 18 -46 40 -84 45 -76 47 -88 24 -107 -15
-12 -16 -32 -11 -162 4 -120 3 -149 -8 -153 -19 -8 -31 -49 -34 -119 -2 -33
-4 -61 -6 -63 -1 -2 -16 9 -31 24 -41 38 -86 64 -111 64 -20 0 -23 5 -24 43
-3 107 -14 138 -76 214 -43 52 -72 141 -108 327 -30 156 -81 307 -124 370 -35
50 -76 83 -151 121 -30 15 -73 43 -95 62 l-40 34 -152 -3 c-83 -1 -155 1 -159
5 -18 18 37 36 131 42 133 9 290 31 344 47 46 14 78 46 86 87 2 13 -9 62 -25
108 -17 47 -30 92 -30 101 0 9 -5 34 -11 56 l-11 38 -22 -21 c-13 -12 -57 -33
-97 -45 -41 -13 -65 -24 -53 -25 31 -2 147 40 161 58 10 13 12 9 13 -28 0 -50
25 -152 47 -194 19 -38 3 -80 -40 -100 -61 -29 -297 -51 -546 -52 l-233 0 58
-18 c33 -11 94 -19 136 -20 69 -2 95 -9 70 -19 -11 -4 -65 -85 -91 -135 -11
-23 -34 -83 -51 -133 -20 -64 -43 -111 -77 -156 -26 -36 -65 -88 -86 -116 -20
-29 -42 -70 -48 -92 -17 -68 -51 -145 -67 -151 -16 -6 -85 49 -157 127 -27 29
-106 114 -175 188 -159 172 -253 287 -240 295 5 3 20 -12 34 -33 37 -59 120
-126 211 -171 84 -42 135 -56 78 -22 -38 23 -126 127 -153 182 -11 21 -18 39
-15 39 4 0 25 -13 48 -28 53 -35 205 -104 219 -100 6 2 -13 16 -43 31 -66 32
-149 86 -149 97 0 4 17 4 38 -1 65 -15 128 -11 153 11 26 21 19 26 -12 9 -16
-8 -29 -4 -70 26 -49 37 -49 37 -44 84 4 29 1 64 -9 96 -8 27 -14 51 -12 53 2
2 -7 15 -21 30 -32 35 -17 38 62 13 71 -23 135 -27 153 -9 9 9 18 9 37 0 14
-7 37 -12 51 -12 23 0 20 4 -27 40 -30 22 -57 40 -61 40 -3 0 -8 -12 -10 -27
-2 -23 -9 -29 -34 -31 -17 -2 -58 6 -90 17 -32 12 -68 21 -81 21 -13 0 -21 5
-19 13 1 6 1 9 -1 5 -3 -5 -22 -8 -42 -8 -46 0 -78 23 -120 87 -40 60 -40 79
-1 25 43 -60 55 -52 15 9 -37 54 -55 105 -55 155 0 36 20 57 44 48 21 -8 20
-17 -4 -32 -11 -7 -20 -19 -20 -27 0 -10 8 -6 25 10 25 26 75 34 75 13 0 -7
-14 -25 -32 -40 -18 -15 -27 -28 -20 -28 6 0 30 19 53 42 33 34 44 40 57 31 9
-5 18 -24 20 -40 3 -29 1 -30 -43 -35 -56 -7 -62 -12 -47 -41 6 -12 16 -38 21
-57 9 -33 9 -33 10 -7 1 15 -6 41 -14 57 -15 30 -15 30 12 30 16 0 37 3 49 6
17 5 24 -4 45 -58 24 -60 27 -63 58 -61 57 2 58 19 5 45 -46 21 -50 27 -67 83
-27 89 -28 89 -88 95 -30 3 -67 13 -83 23 -35 24 -51 17 -66 -27 -9 -29 -9
-46 4 -88 18 -63 13 -75 -9 -22 -23 54 -29 143 -12 174 11 21 20 25 56 23 23
-1 57 -11 75 -21 19 -11 52 -23 75 -27 38 -6 44 -12 104 -104 69 -105 174
-224 218 -247 16 -8 38 -14 51 -13 23 0 23 0 -2 10 -49 20 -90 61 -131 132
-101 176 -100 170 -19 84 40 -43 94 -92 119 -109 25 -17 69 -54 97 -83 51 -51
135 -100 157 -92 7 3 1 9 -13 15 -24 9 -48 32 -80 77 -13 17 -12 17 17 -3 60
-42 116 -62 173 -60 30 0 42 3 27 5 -16 3 -54 29 -91 64 -50 46 -65 67 -69 96
-4 21 -24 92 -46 158 -22 66 -38 121 -36 123 1 2 12 -13 24 -32 54 -87 243
-226 307 -226 34 0 38 17 4 18 -56 1 -131 75 -224 217 l-52 80 5 74 c5 65 8
72 20 58 7 -10 18 -17 24 -17 6 0 0 11 -13 25 -23 24 -23 25 -5 64 14 32 28
44 75 65 32 14 64 26 72 26 9 0 24 -22 37 -51 14 -36 25 -50 35 -46 8 3 17 0
20 -8 3 -8 0 -15 -6 -17 -7 -3 -3 -13 10 -26 50 -50 63 -14 32 87 -12 42 -25
84 -27 94 -3 10 0 17 9 17 7 0 24 -28 38 -62 29 -74 91 -172 114 -181 24 -10
45 2 52 30 7 25 0 126 -11 173 -3 14 3 7 14 -15 11 -25 17 -55 15 -79 -3 -29
-1 -37 7 -29 17 17 12 106 -10 178 -12 37 -21 68 -21 69 0 2 24 -19 53 -45 28
-27 72 -59 97 -71 25 -13 47 -25 50 -28 3 -3 33 -14 68 -25 34 -10 62 -19 62
-20 0 -9 -43 -96 -60 -120 -27 -41 -27 -113 1 -149 18 -23 20 -35 15 -79 -6
-48 -5 -50 9 -33 21 27 19 82 -4 114 -33 49 -32 80 6 157 20 38 39 82 44 97 7
26 5 28 -57 50 -52 19 -66 28 -74 52 -5 16 -8 32 -5 34 3 3 30 -2 60 -10 30
-8 55 -12 55 -8 0 4 -10 10 -23 14 -43 10 -112 81 -126 128 -7 24 -24 63 -37
87 -13 24 -23 45 -21 47 1 2 37 -23 79 -54 77 -57 98 -87 98 -141 0 -20 2 -23
10 -11 24 37 -6 111 -76 189 -42 47 -56 69 -34 56 13 -8 171 -8 204 1 13 3 27
13 31 21 4 12 2 13 -7 6 -43 -33 -104 -14 -282 91 -77 45 -96 62 -105 88 -26
77 -151 229 -266 324 -105 86 -244 168 -355 210 -93 34 136 -3 255 -42 83 -27
118 -52 166 -118 37 -50 38 -32 1 23 -35 52 -117 121 -197 166 -78 44 -226 92
-307 100 -34 3 -89 13 -120 22 l-57 16 42 27 c104 66 226 179 227 210 0 8 -12
-2 -27 -23 -32 -45 -158 -132 -255 -175 -57 -26 -75 -29 -125 -25 -132 12
-359 -38 -526 -115 -150 -70 -291 -173 -358 -262 l-35 -47 -17 56 c-22 74 -81
172 -138 230 -52 53 -142 116 -179 126 -14 4 1 -11 35 -33 33 -22 72 -52 86
-68 75 -83 173 -276 185 -366 5 -40 3 -44 -24 -59 -89 -50 -238 -357 -258
-534 -12 -102 -115 -239 -207 -274 -43 -16 -47 -20 -24 -20 37 -1 110 37 192
99 36 27 68 50 70 50 2 0 -7 -27 -21 -60 -55 -136 -71 -397 -29 -497 17 -42
75 -103 98 -103 6 0 -5 13 -24 30 -20 16 -42 43 -49 60 -20 49 -7 171 29 267
32 86 68 163 76 163 3 0 2 -17 -1 -38 -15 -96 41 -355 97 -446 29 -47 29 -51
19 -105 -11 -54 -39 -152 -46 -160 -2 -2 -25 -10 -51 -17 l-48 -13 46 0 c34
-1 68 10 137 44 51 24 92 42 92 39 0 -4 -17 -27 -38 -53 -61 -75 -65 -81 -54
-81 6 0 56 34 111 75 56 41 102 75 104 75 1 0 3 -21 4 -48 3 -63 29 -127 60
-152 33 -26 42 -19 13 10 -18 18 -20 28 -15 68 10 75 16 102 23 102 4 -1 24
-28 44 -60 l37 -60 -66 -107 c-36 -60 -81 -134 -99 -165 -63 -111 -53 -104
-269 -183 -63 -23 -98 -61 -158 -168 -26 -47 -51 -88 -56 -91 -4 -3 -41 -10
-81 -17 -81 -12 -125 -35 -181 -95 -45 -48 -149 -204 -189 -284 -16 -32 -34
-61 -39 -64 -17 -11 -173 221 -248 369 -92 181 -181 430 -208 583 -8 48 -20
105 -25 127 -5 22 -13 83 -16 136 l-7 96 93 6 c51 4 115 7 141 7 26 0 50 4 54
9 3 6 37 13 75 17 56 5 71 10 76 26 4 14 9 16 18 9 7 -6 16 -8 19 -4 4 3 12 1
19 -4 9 -7 60 -7 152 -1 79 5 143 5 150 0 14 -12 367 17 384 31 20 16 -6 27
-36 16 -14 -5 -41 -10 -61 -10 -110 -1 -181 -5 -181 -9 0 -3 -73 -6 -162 -8
-90 -1 -179 -5 -199 -8 -25 -3 -39 -1 -48 10 -7 8 -19 12 -27 9 -9 -3 -14 2
-14 17 0 11 -4 18 -10 15 -5 -3 -10 -15 -10 -26 0 -10 -5 -19 -11 -19 -5 0 -7
-4 -4 -10 3 -5 3 -10 -2 -11 -53 -3 -103 -11 -175 -24 -11 -2 -68 -7 -128 -11
-99 -5 -108 -5 -114 13 -9 29 -4 93 8 93 6 0 4 5 -4 10 -13 9 -13 11 0 20 12
8 12 10 1 10 -11 0 -13 16 -6 88 4 48 9 105 10 127 6 78 15 130 25 133 5 2 6
17 3 34 -5 24 -3 29 7 23 9 -5 11 -4 6 4 -17 27 52 305 87 349 5 7 7 15 4 18
-8 9 112 284 125 284 3 0 9 13 13 29 3 17 20 47 36 67 16 20 29 42 29 48 0 7
8 21 19 32 10 11 22 30 25 42 6 19 14 22 51 20 29 -1 42 -5 38 -12 -3 -6 0 -5
8 2 7 6 37 12 67 12 30 0 86 9 124 21 54 16 73 18 84 9 7 -7 11 -17 7 -23 -3
-6 -1 -7 5 -3 7 4 39 -9 72 -30 33 -20 63 -34 67 -31 3 4 1 32 -6 63 -6 32
-10 58 -8 59 1 1 49 23 107 49 110 51 180 98 180 122 0 20 -6 18 -48 -15 -49
-39 -235 -122 -243 -109 -12 19 -31 -34 -26 -68 3 -19 3 -34 0 -34 -4 0 -28
14 -55 31 -46 30 -51 31 -91 20 -90 -26 -115 -30 -189 -37 -113 -10 -117 -6
-67 63 226 308 609 613 947 752 86 36 85 37 46 -95 -37 -128 -80 -226 -136
-310 -55 -81 -62 -126 -8 -51 18 26 37 47 42 47 4 0 7 3 6 8 -1 4 16 45 39 92
23 47 45 96 48 110 4 14 16 37 26 52 11 15 15 29 10 32 -6 4 -6 18 0 39 6 17
12 43 15 57 3 14 9 26 14 28 5 2 6 10 3 18 -3 10 0 12 10 9 8 -4 17 1 21 10 3
10 13 15 20 12 8 -3 20 1 26 9 7 8 19 14 26 14 8 0 47 11 86 25 40 14 97 28
127 31 31 3 59 8 62 10 4 2 9 -3 13 -11 6 -17 36 -21 36 -4 0 5 -4 8 -9 4 -5
-3 -12 -1 -16 4 -3 6 14 15 37 21 24 6 51 13 61 16 9 3 17 0 17 -7 0 -9 3 -9
14 0 8 6 18 11 22 10 5 -1 16 1 24 4 30 13 329 15 490 4z m-380 -499 c-25 -11
-90 -26 -145 -33 -56 -7 -139 -22 -185 -33 -47 -11 -101 -23 -120 -26 -62 -11
82 51 173 74 45 12 96 25 112 30 17 4 71 8 120 8 l90 1 -45 -21z m175 3 c15
-6 8 -9 -28 -12 -40 -4 -45 -2 -30 8 19 15 29 15 58 4z m200 -211 c3 -6 -1 -7
-9 -4 -18 7 -21 14 -7 14 6 0 13 -4 16 -10z m94 -57 c79 -56 221 -196 277
-273 56 -77 148 -229 142 -235 -3 -3 -26 30 -52 74 -57 96 -85 124 -45 44 38
-78 37 -100 -3 -38 -33 51 -195 245 -205 245 -3 0 -1 -6 5 -13 6 -7 16 -26 22
-42 l11 -30 -32 30 -32 30 21 -32 22 -32 -47 26 -48 25 24 -26 c45 -48 16 -36
-41 17 -31 29 -59 62 -61 75 -4 17 -2 21 6 14 16 -12 48 -11 40 1 -4 6 1 8 11
4 24 -9 10 10 -17 25 -19 10 -21 9 -9 -4 10 -13 10 -18 1 -24 -7 -4 -9 -3 -5
4 3 6 2 13 -4 17 -6 4 -8 10 -5 15 3 4 -18 27 -45 51 -27 24 -48 45 -45 47 2
2 46 -20 97 -49 68 -39 118 -78 186 -145 106 -106 109 -103 8 10 -66 74 -161
161 -231 213 -58 43 -12 22 54 -24z m-377 -138 c32 -38 84 -108 115 -155 56
-84 176 -322 187 -370 l6 -25 -12 25 c-141 298 -231 439 -378 594 -55 59 -58
64 -21 35 24 -19 70 -65 103 -104z m604 84 c3 -6 -5 -3 -20 6 -14 10 -26 19
-26 22 0 7 39 -17 46 -28z m39 -29 c10 -11 16 -20 13 -20 -3 0 -13 9 -23 20
-10 11 -16 20 -13 20 3 0 13 -9 23 -20z m-1228 -30 c102 -24 214 -79 318 -157
87 -64 233 -210 297 -295 40 -53 133 -227 125 -234 -5 -5 -137 193 -137 205 0
6 -4 13 -10 16 -15 9 -1 -23 37 -86 29 -49 94 -231 93 -263 -1 -6 -16 21 -34
59 -37 80 -152 285 -168 300 -6 6 2 -13 16 -42 24 -48 76 -179 76 -190 0 -3
-25 32 -56 78 -31 46 -63 91 -71 99 -12 13 -13 13 -8 -5 7 -20 6 -20 -9 -1 -9
11 -16 14 -16 7 0 -7 -3 -10 -7 -8 -5 3 -9 -7 -10 -21 l-1 -27 12 24 c11 20
14 21 19 7 5 -12 3 -15 -5 -10 -8 5 -9 2 -5 -10 4 -10 3 -15 -3 -11 -6 3 -10
1 -10 -6 0 -6 -9 -1 -20 12 l-19 24 5 -30 c6 -36 1 -31 -55 49 -23 33 -41 66
-41 73 0 8 -7 27 -15 43 -17 34 -2 42 17 10 7 -11 17 -20 22 -20 4 0 1 11 -8
25 -26 39 -19 41 19 5 45 -44 44 -33 -2 32 l-36 53 63 -60 c35 -33 59 -53 54
-45 -35 50 -134 173 -178 219 -28 30 -44 50 -36 46 44 -24 187 -140 270 -220
52 -49 86 -79 75 -65 -37 48 -164 167 -237 223 -155 118 -282 178 -428 200
-94 15 -94 15 -35 16 33 0 97 -8 142 -19z m1384 -113 c47 -50 134 -176 126
-183 -3 -3 -13 7 -23 23 -49 81 -75 114 -144 188 -41 44 -58 65 -37 47 21 -18
56 -52 78 -75z m-592 -37 c41 -79 105 -256 115 -320 4 -25 1 -20 -10 15 -34
110 -79 225 -126 320 -55 114 -40 102 21 -15z m1507 -23 c10 -28 18 -59 19
-69 1 -9 7 -23 13 -31 7 -8 12 -19 11 -23 -1 -5 0 -16 3 -24 30 -88 66 -230
79 -315 13 -85 14 -384 2 -396 -5 -4 -20 -10 -34 -14 l-26 -6 -6 158 c-6 164
-36 349 -63 388 -18 25 -18 8 1 -70 18 -75 18 -98 0 -65 -13 24 -13 24 -11
-15 1 -22 5 -45 8 -50 5 -8 28 -117 28 -132 0 -2 -7 -3 -15 -3 -8 0 -15 9 -15
20 0 11 -1 21 -1 23 -7 10 -22 131 -28 217 l-7 105 -2 -95 c-2 -115 18 -238
53 -322 39 -95 39 -94 28 -83 -14 14 -86 196 -111 280 -32 108 -73 305 -67
315 3 5 0 48 -6 95 -10 68 -10 88 0 98 16 15 41 -15 41 -49 0 -13 7 -29 15
-38 8 -8 15 -21 15 -28 1 -7 14 -51 31 -98 l29 -85 -6 55 c-9 72 -10 82 -17
100 -12 32 -17 70 -10 71 5 0 18 2 30 3 32 4 38 13 20 31 -10 10 -18 12 -22 5
-5 -8 -11 -7 -21 1 -9 7 -14 8 -14 1 0 -6 6 -12 13 -15 6 -2 9 -8 5 -12 -4 -4
-14 -3 -21 3 -8 7 -16 10 -18 8 -2 -2 -4 5 -4 17 -1 12 -5 33 -9 47 -5 14 -5
22 -1 17 5 -4 17 1 27 10 15 13 18 14 15 2 -1 -8 1 -4 7 8 13 30 21 22 42 -40z
m-2406 -61 c54 -37 210 -185 210 -199 0 -6 17 -33 38 -61 42 -56 109 -171 94
-162 -5 3 -31 38 -57 78 -101 152 -240 299 -352 373 -24 15 -43 29 -43 32 0 6
62 -28 110 -61z m2240 -13 c0 -45 -5 -40 -13 10 -3 22 -2 35 4 32 5 -4 9 -22
9 -42z m-1018 -132 c57 -71 59 -75 38 -83 -11 -4 -39 -9 -61 -10 l-41 -3 -18
70 c-10 39 -28 97 -39 130 l-20 60 40 -45 c22 -25 67 -78 101 -119z m1178 139
c0 -5 -4 -10 -10 -10 -5 0 -10 5 -10 10 0 6 5 10 10 10 6 0 10 -4 10 -10z
m-1560 -95 c0 -5 -5 -3 -10 5 -5 8 -10 20 -10 25 0 6 5 3 10 -5 5 -8 10 -19
10 -25z m292 -115 c3 -16 1 -30 -4 -30 -4 0 -8 14 -8 30 0 17 2 30 4 30 2 0 6
-13 8 -30z m184 -52 c46 -53 74 -108 74 -148 0 -22 -2 -40 -4 -40 -2 0 -21 6
-42 14 -22 7 -46 11 -54 8 -13 -5 -13 -3 -1 11 16 20 36 23 25 5 -4 -8 -3 -10
2 -5 5 5 9 13 9 17 0 5 9 16 20 24 11 9 15 16 8 16 -31 1 -111 -84 -159 -168
-20 -35 -38 -61 -40 -59 -3 3 0 25 7 51 7 28 10 92 7 162 -4 109 -3 115 16
119 12 2 30 6 41 8 47 10 72 6 91 -15z m296 -40 c-18 -18 -57 19 -40 39 10 12
15 11 32 -6 16 -16 18 -23 8 -33z m-463 -111 c1 -97 -12 -182 -32 -202 -6 -7
-7 16 -3 65 3 41 9 125 13 185 8 130 20 104 22 -48z m521 127 c0 -2 -9 0 -20
6 -11 6 -20 13 -20 16 0 2 9 0 20 -6 11 -6 20 -13 20 -16z m-643 -6 c-3 -8 -6
-5 -6 6 -1 11 2 17 5 13 3 -3 4 -12 1 -19z m-773 -61 c34 -56 70 -144 102
-250 14 -44 15 -60 6 -69 -9 -9 -16 -7 -27 8 -15 18 -16 17 -13 -18 2 -20 1
-35 -3 -32 -11 7 -70 176 -67 192 2 9 14 -15 27 -52 27 -78 40 -82 17 -5 -19
64 -19 74 0 34 l14 -30 -6 35 c-4 19 -24 77 -46 130 -21 52 -42 102 -45 110
-11 27 7 4 41 -53z m366 19 c0 -5 -7 -1 -15 10 -8 10 -14 24 -14 29 0 6 6 1
14 -9 8 -11 15 -24 15 -30z m987 4 c26 -22 56 -46 66 -55 16 -14 25 -80 9 -73
-4 2 -28 19 -54 38 -34 26 -49 47 -61 83 -8 26 -14 47 -12 47 2 0 25 -18 52
-40z m23 16 c0 -3 -4 -8 -10 -11 -5 -3 -10 -1 -10 4 0 6 5 11 10 11 6 0 10 -2
10 -4z m-1940 -203 c10 -96 66 -347 82 -373 7 -11 8 -8 3 10 -21 84 -33 470
-15 470 6 0 10 -12 10 -28 0 -32 32 -152 54 -202 l16 -35 -5 55 c-4 41 -3 49
4 33 15 -33 21 -28 15 10 l-5 32 15 -25 c23 -38 31 -125 15 -172 -12 -38 -13
-38 -24 -17 -12 22 -12 22 -19 -5 -4 -15 -4 -37 0 -48 4 -13 2 -18 -4 -14 -5
3 -13 22 -16 41 -7 37 -26 48 -26 15 0 -42 32 -234 46 -273 22 -62 10 -55 -31
20 -21 37 -42 71 -47 74 -13 9 -56 196 -73 319 -8 58 -14 152 -13 210 1 58 3
80 5 50 1 -30 7 -96 13 -147z m1330 142 c0 -5 -5 -3 -10 5 -5 8 -10 20 -10 25
0 6 5 3 10 -5 5 -8 10 -19 10 -25z m659 -131 c-5 -6 -5 -15 -1 -20 4 -5 -6 2
-21 16 -15 13 -25 30 -23 37 3 7 -2 13 -11 13 -9 0 -14 3 -10 6 3 4 0 13 -8
21 -8 8 -15 20 -15 26 0 7 22 -10 49 -38 32 -32 46 -54 40 -61z m-103 -59 c20
-67 31 -220 15 -229 -19 -12 -60 51 -121 184 -11 25 -17 34 -14 20 4 -18 3
-21 -5 -11 -5 8 -8 29 -6 45 2 17 -3 51 -11 75 -8 24 -13 45 -11 47 2 2 23
-33 46 -77 33 -62 42 -88 37 -110 -3 -16 -1 -29 4 -29 6 0 10 5 10 11 0 8 4 9
13 0 8 -6 17 -8 20 -5 10 11 27 -44 29 -94 1 -41 2 -42 5 -12 3 19 -1 61 -8
94 -11 52 -14 57 -25 41 -16 -22 -18 -18 -32 86 -6 41 -14 84 -17 95 -4 10 7
-3 24 -31 17 -27 38 -72 47 -100z m-306 110 c-7 -9 -15 -13 -18 -10 -3 2 1 11
8 20 7 9 15 13 18 10 3 -2 -1 -11 -8 -20z m104 -5 c29 -11 36 -50 12 -69 -12
-10 -19 -5 -39 26 -33 51 -25 63 27 43z m-315 -50 c0 -9 -4 -8 -9 5 -5 11 -9
27 -9 35 0 9 4 8 9 -5 5 -11 9 -27 9 -35z m232 -72 c-9 -9 -81 -38 -81 -32 0
8 42 88 54 103 9 11 13 6 22 -25 6 -21 9 -42 5 -46z m1103 -93 c3 -11 -7 7
-23 41 -16 33 -32 78 -36 100 -4 26 3 13 23 -41 16 -44 33 -89 36 -100z
m-2360 143 c17 -24 23 -109 7 -92 -14 14 -41 114 -31 114 5 0 16 -10 24 -22z
m53 0 c-3 -8 -6 -5 -6 6 -1 11 2 17 5 13 3 -3 4 -12 1 -19z m160 -210 c-3 -8
-6 -5 -6 6 -1 11 2 17 5 13 3 -3 4 -12 1 -19z m-360 -40 c-3 -8 -6 -5 -6 6 -1
11 2 17 5 13 3 -3 4 -12 1 -19z m381 -33 c0 -16 -2 -15 -8 5 -11 34 -11 60 0
35 5 -11 8 -29 8 -40z m2282 -15 c0 -5 -3 -10 -7 -10 -5 0 -18 -3 -30 -6 -17
-5 -23 -2 -23 10 0 11 9 16 30 16 17 0 30 -4 30 -10z m-2257 -83 c7 -37 11
-67 7 -67 -6 0 -30 103 -30 130 0 28 9 2 23 -63z m2277 18 c0 -9 -9 -15 -25
-15 -14 0 -25 5 -25 11 0 6 7 8 16 5 8 -3 12 -2 9 4 -3 6 1 10 9 10 9 0 16 -7
16 -15z m-73 -17 c2 -17 0 -19 -7 -8 -5 8 -6 18 -4 22 8 12 10 10 11 -14z m81
-54 c-4 -3 -19 -4 -35 -2 l-28 4 25 11 c23 10 51 1 38 -13z m-1998 -4 c-20
-13 -33 -13 -25 0 3 6 14 10 23 10 15 0 15 -2 2 -10z m-273 -42 c-3 -8 -6 -5
-6 6 -1 11 2 17 5 13 3 -3 4 -12 1 -19z m2253 18 c0 -2 -7 -7 -16 -10 -8 -3
-12 -2 -9 4 6 10 25 14 25 6z m-1729 -53 c13 -16 12 -17 -3 -4 -17 13 -22 21
-14 21 2 0 10 -8 17 -17z m2057 -157 c2 -51 -2 -94 -7 -99 -11 -11 -13 -8 -27
58 -10 44 -8 43 -94 25 -45 -9 -44 -9 17 -6 l61 2 7 -44 c5 -32 3 -47 -7 -53
-19 -12 -23 -11 -44 12 -18 20 -18 21 1 36 19 14 18 15 -17 10 -23 -4 -38 -1
-41 6 -2 7 -20 -2 -44 -21 -37 -29 -113 -68 -113 -58 0 2 25 18 56 36 31 17
54 34 51 37 -3 3 -19 -4 -36 -16 -64 -46 -192 -81 -217 -60 -22 18 4 47 79 86
38 20 76 47 84 60 25 38 74 61 143 68 36 4 67 9 70 11 2 3 20 4 40 2 l35 -3 3
-89z m-384 62 c34 -55 30 -72 -27 -115 -60 -45 -57 -51 -36 70 9 55 15 67 30
67 10 0 25 -10 33 -22z m-73 -29 c-9 -22 -10 -22 -10 -3 -1 11 2 24 6 27 12
12 14 0 4 -24z m309 -151 c0 -44 -17 -43 -20 2 -3 34 -2 40 10 40 6 0 10 -19
10 -42z m50 -19 c0 -5 -7 -9 -15 -9 -9 0 -15 9 -15 21 0 18 2 19 15 9 8 -7 15
-16 15 -21z m130 -21 c6 -18 18 -49 26 -68 7 -19 16 -53 20 -75 l7 -40 -37 48
c-25 31 -44 47 -59 47 -13 0 -62 -20 -110 -45 -48 -25 -94 -45 -102 -45 -8 0
-71 -38 -140 -85 -70 -47 -131 -85 -137 -85 -6 0 -9 -3 -6 -6 9 -8 63 22 166
93 51 35 114 71 140 78 43 13 45 13 27 -1 -11 -9 -38 -25 -60 -36 -21 -11 -62
-38 -90 -58 -102 -76 -206 -108 -249 -77 -25 18 -12 40 56 97 29 25 71 65 93
90 81 90 93 100 123 100 38 0 129 29 212 68 87 40 104 40 120 0z m-407 -12
c46 6 47 5 47 -20 0 -14 -5 -26 -10 -26 -6 0 -25 -15 -41 -32 -179 -190 -184
-191 -124 -37 38 100 44 126 14 64 l-19 -40 6 40 c3 22 10 47 15 57 8 15 12
15 37 2 19 -10 42 -13 75 -8z m10 17 c-7 -2 -19 -2 -25 0 -7 3 -2 5 12 5 14 0
19 -2 13 -5z m-2075 -88 c-3 -3 -9 2 -12 12 -6 14 -5 15 5 6 7 -7 10 -15 7
-18z m2478 -75 c20 -27 39 -50 43 -50 14 0 61 -52 61 -68 0 -21 -46 -22 -93
-3 -26 10 -28 14 -22 44 l7 32 -24 -25 c-13 -14 -23 -32 -22 -40 0 -8 -1 -10
-3 -2 -6 16 -12 15 -51 -8 -18 -11 -31 -24 -28 -29 8 -12 -40 -43 -62 -40 -34
3 -42 -2 -70 -43 -50 -71 -107 -128 -130 -128 -32 0 -28 27 12 83 19 26 46 76
61 111 22 52 34 68 68 87 23 12 62 39 87 60 48 39 97 68 118 69 6 0 28 -22 48
-50z m-2331 -100 l49 -55 -56 54 c-32 30 -71 75 -89 100 l-31 46 38 -45 c21
-25 61 -70 89 -100z m-495 99 c0 -6 -4 -7 -10 -4 -5 3 -10 11 -10 16 0 6 5 7
10 4 6 -3 10 -11 10 -16z m546 -70 c15 -57 13 -69 -10 -50 -8 7 -16 35 -18 66
-4 65 9 57 28 -16z m-496 31 c0 -11 -4 -20 -10 -20 -5 0 -10 9 -10 20 0 11 5
20 10 20 6 0 10 -9 10 -20z m-80 -389 c0 -256 -4 -402 -10 -406 -7 -4 -10 132
-10 399 0 264 3 406 10 406 6 0 10 -140 10 -399z m100 368 c0 -11 -4 -18 -10
-14 -5 3 -7 12 -3 20 7 21 13 19 13 -6z m-130 -949 c0 -633 -3 -960 -10 -960
-7 0 -11 194 -12 558 l-3 557 -5 -555 c-5 -538 -6 -554 -22 -518 -16 34 -18
82 -18 543 0 325 4 505 10 505 6 0 11 -112 13 -302 1 -167 3 9 5 390 1 501 5
692 13 692 8 0 10 -101 7 -364 -2 -201 -1 -362 2 -359 7 7 7 -2 9 406 0 202 3
367 6 367 3 0 5 -432 5 -960z m56 918 c-4 -20 -1 -30 9 -34 13 -5 15 -54 15
-340 0 -216 -4 -334 -10 -334 -6 0 -11 72 -12 193 l-2 192 -6 -205 c-5 -174
-6 -147 -8 183 -1 280 1 386 9 381 6 -4 9 -19 5 -36z m54 -29 c0 -10 -4 -19
-10 -19 -5 0 -10 12 -10 26 0 14 4 23 10 19 6 -3 10 -15 10 -26z m65 21 c3 -6
-1 -7 -9 -4 -18 7 -21 14 -7 14 6 0 13 -4 16 -10z m1301 -96 c-1 -52 0 -97 4
-99 3 -2 7 42 8 97 3 151 12 132 12 -25 0 -135 0 -137 -20 -125 -18 12 -20 24
-20 136 0 71 4 121 9 118 5 -3 8 -49 7 -102z m54 -34 c0 -87 -4 -140 -10 -140
-6 0 -10 53 -10 140 0 87 4 140 10 140 6 0 10 -53 10 -140z m17 -77 c-1 -43
-3 -10 -3 72 0 83 2 118 3 78 2 -40 2 -107 0 -150z m33 61 c0 -101 -3 -153
-10 -149 -6 4 -10 67 -10 156 0 93 4 149 10 149 6 0 10 -59 10 -156z m49 -314
c-1 -256 -5 -454 -9 -440 -4 14 -9 140 -11 280 l-3 255 -6 -170 c-5 -135 -6
-98 -8 185 -2 350 -2 356 18 356 20 0 20 -7 19 -466z m-179 345 c0 -70 -4
-115 -10 -115 -6 0 -10 43 -10 108 0 95 4 122 17 122 2 0 3 -52 3 -115z m214
109 c14 -6 16 -81 18 -733 l3 -726 2 718 c2 524 6 717 14 717 15 0 3 -1433
-12 -1438 -5 -2 -9 -56 -9 -120 0 -64 -4 -135 -8 -157 -4 -22 -9 192 -12 475
l-5 515 -3 -525 c-2 -289 -6 -519 -9 -512 -7 17 -21 15 -26 -5 -3 -10 -5 51
-6 135 0 84 3 161 9 171 12 24 20 430 20 1019 0 259 2 472 4 472 2 0 11 -3 20
-6z m-264 -99 c0 -57 -4 -95 -10 -95 -6 0 -10 38 -10 95 0 57 4 95 10 95 6 0
10 -38 10 -95z m20 -11 c0 -58 -3 -103 -7 -101 -8 5 -5 207 3 207 2 0 4 -48 4
-106z m-1247 90 c29 -11 -2 -124 -34 -124 -7 0 -3 58 7 108 5 24 6 25 27 16z
m1179 -39 c8 -7 9 -5 5 6 -3 9 -1 22 4 30 5 9 8 -18 7 -71 -1 -60 -3 -69 -5
-32 -2 28 -9 52 -15 52 -6 0 -8 -11 -5 -28 3 -15 2 -34 -4 -42 -6 -10 -8 11
-8 60 1 41 3 66 6 55 3 -11 10 -24 15 -30z m1536 4 c-37 -19 -59 -14 -31 7 12
9 13 13 5 14 -7 0 -11 4 -8 9 4 5 19 5 36 -2 l30 -11 -32 -17z m-1568 -26 c-1
-50 -2 -56 -14 -41 -7 10 -16 15 -19 11 -4 -3 -6 11 -6 33 1 38 2 38 9 9 7
-29 8 -29 10 -5 1 14 2 31 1 38 -1 6 3 12 9 12 6 0 10 -24 10 -57z m1465 47
c-3 -5 -11 -10 -16 -10 -6 0 -7 5 -4 10 3 6 11 10 16 10 6 0 7 -4 4 -10z
m-2835 -361 c0 -237 -3 -358 -10 -354 -6 4 -11 107 -12 268 l-2 262 -6 -265
-6 -265 -2 338 c-1 190 2 337 7 337 5 0 11 9 14 20 3 11 8 20 11 20 3 0 6
-162 6 -361z m2600 356 c0 -13 -29 -67 -63 -117 -76 -110 -25 -157 86 -79 31
22 57 37 57 33 0 -5 -21 -23 -46 -40 -36 -26 -44 -37 -39 -53 4 -11 0 -30 -9
-44 -9 -13 -16 -31 -16 -40 0 -8 -4 -15 -9 -15 -8 0 -31 -67 -47 -133 -3 -15
-8 -26 -10 -24 -2 2 -15 43 -29 91 -14 48 -41 119 -59 159 -29 60 -76 172 -76
180 0 1 21 2 48 2 46 1 131 33 177 69 20 15 35 20 35 11z m-829 -1153 c-6 -11
-8 46 -6 158 2 96 5 357 7 580 3 385 3 377 5 -158 2 -338 -1 -570 -6 -580z
m1096 1121 c2 -6 -5 -13 -17 -16 -12 -3 -20 0 -20 7 0 26 29 33 37 9z m182
-52 c24 -78 25 -91 11 -91 -5 0 -10 4 -10 9 0 6 -10 21 -22 34 -22 23 -26 23
-79 12 -45 -8 -71 -22 -120 -63 -35 -29 -83 -60 -106 -68 -40 -15 -57 -34 -33
-34 6 0 20 -9 31 -19 l20 -19 -20 -40 c-17 -33 -71 -200 -71 -219 0 -2 3 -2 8
0 4 3 6 -25 4 -63 -3 -62 -6 -68 -27 -72 -17 -4 -29 3 -44 23 -12 16 -21 34
-21 41 0 7 -10 31 -21 53 -27 51 -22 127 15 207 14 31 30 68 36 82 6 17 17 26
32 26 l23 0 -23 18 -23 18 28 25 c15 14 42 31 58 39 17 8 51 36 76 62 30 31
58 50 80 54 19 4 57 17 84 30 83 37 90 34 114 -45z m-2659 -48 c106 -133 251
-296 389 -435 l106 -108 -37 0 c-47 0 -58 -15 -93 -135 -25 -85 -95 -284 -103
-295 -11 -15 -80 103 -191 327 -213 431 -232 473 -251 549 -10 43 -21 86 -25
95 -4 12 1 18 18 23 14 3 40 23 58 45 19 22 36 40 39 40 3 0 43 -48 90 -106z
m1470 68 c0 -8 -1 -12 -3 -10 -1 2 -11 15 -22 28 l-20 24 23 -14 c12 -8 22
-20 22 -28z m-50 -490 c0 -329 -4 -512 -10 -516 -7 -4 -10 168 -10 509 0 337
3 516 10 516 7 0 10 -176 10 -509z m885 455 c-45 -55 -58 -61 -20 -8 46 61 48
63 53 58 2 -3 -13 -25 -33 -50z m-805 8 c0 -14 -4 -22 -10 -19 -5 3 -10 17
-10 31 0 14 4 22 10 19 6 -3 10 -17 10 -31z m-1736 -26 c1 -24 4 -72 6 -108
l3 -65 7 55 c4 33 7 -32 8 -162 1 -120 -1 -218 -5 -218 -5 0 -7 43 -6 95 1 52
-2 97 -6 100 -5 2 -9 -43 -10 -102 -1 -59 -4 -109 -7 -112 -2 -2 -4 125 -4
284 0 159 3 286 6 282 3 -3 7 -25 8 -49z m1165 -161 c0 -106 -4 -199 -9 -207
-6 -10 -10 61 -10 198 0 133 4 211 10 207 5 -3 9 -87 9 -198z m521 177 c0 -8
5 -14 10 -14 7 0 10 -141 10 -404 0 -259 -4 -407 -10 -411 -7 -4 -11 81 -12
247 l-3 253 -5 -285 c-5 -269 -6 -259 -8 178 -1 307 1 461 8 457 6 -3 10 -13
10 -21z m78 -26 c1 17 7 32 12 32 6 0 10 -48 9 -127 -1 -96 -3 -118 -10 -88
-4 22 -8 65 -9 95 -1 40 -4 50 -10 35 -6 -14 -8 0 -8 45 1 62 1 63 8 20 6 -39
7 -40 8 -12z m-1968 -263 c0 -197 -4 -305 -10 -305 -6 0 -10 106 -10 298 0
263 3 312 17 312 2 0 3 -137 3 -305z m1387 -17 c-1 -57 -3 -11 -3 102 0 113 2
159 3 103 2 -57 2 -149 0 -205z m-49 135 l-2 -158 -6 140 c-5 131 -3 175 6
175 2 0 3 -71 2 -157z m675 131 c-3 -9 0 -14 8 -12 12 3 15 -64 19 -387 l5
-390 3 370 c1 248 6 365 12 355 6 -9 10 -106 10 -235 -1 -315 4 -339 10 -55 5
201 6 157 8 -242 1 -309 -2 -488 -8 -488 -5 0 -11 49 -13 113 l-3 112 -4 -120
-4 -120 -6 110 -6 110 -2 -107 c-1 -65 -6 -108 -12 -108 -7 0 -10 168 -10 501
0 276 -2 504 -5 507 -3 3 -6 -226 -6 -509 -1 -283 -3 -506 -6 -496 -2 9 -9 15
-14 11 -5 -3 -7 -10 -4 -15 4 -5 2 -9 -4 -9 -7 0 -12 70 -14 198 l-2 197 -3
-205 c-2 -177 -5 -202 -16 -187 -14 18 -14 18 -19 0 -3 -10 -5 57 -6 149 0 92
3 169 7 172 5 3 6 -43 4 -102 -2 -59 0 -103 4 -99 5 5 9 67 10 140 0 91 4 132
12 135 7 2 12 16 12 30 0 15 4 38 8 52 4 14 9 -72 12 -190 4 -146 6 -46 8 313
1 333 6 526 12 522 5 -3 7 -12 3 -21z m-2046 -541 c-2 -2 -12 -1 -21 3 -14 5
-16 33 -16 249 0 214 2 247 18 274 17 30 17 23 20 -246 1 -152 1 -278 -1 -280z
m1453 361 c0 -127 -3 -193 -10 -189 -6 4 -10 80 -10 196 0 119 4 189 10 189 6
0 10 -72 10 -196z m1630 187 c0 -11 -39 -21 -45 -11 -2 4 -2 10 2 14 10 9 43
7 43 -3z m-60 -5 c0 -5 -109 -77 -150 -99 -46 -25 -30 -10 54 52 58 43 96 62
96 47z m-1520 -208 c0 -126 -3 -178 -11 -178 -9 0 -10 48 -6 175 3 102 2 177
-3 180 -6 4 -11 -67 -13 -172 l-2 -178 -3 188 c-2 185 -2 187 18 175 19 -12
20 -24 20 -190z m1622 177 c8 -19 8 -38 -1 -80 -7 -30 -16 -57 -21 -60 -25
-16 -100 52 -100 90 0 8 -5 15 -11 15 -13 0 -3 -37 20 -70 9 -14 31 -32 49
-40 17 -8 32 -20 32 -26 0 -14 -41 -122 -57 -149 l-12 -20 -15 20 c-27 36 -68
159 -71 213 -2 47 0 54 24 71 23 17 29 17 46 5 10 -8 33 -14 49 -13 30 1 29 1
-8 11 l-39 11 44 23 c56 29 57 29 71 -1z m-1152 -257 c0 -144 2 -263 5 -266 3
-3 6 105 7 239 1 134 4 215 7 179 8 -91 2 -530 -7 -530 -5 0 -7 20 -5 45 2 25
0 45 -5 45 -4 0 -6 -30 -5 -66 1 -37 -2 -74 -7 -83 -6 -10 -10 114 -10 347 0
233 3 361 10 357 6 -3 10 -109 10 -267z m-440 72 c0 -102 -4 -171 -10 -175 -7
-4 -10 57 -10 175 0 118 3 179 10 175 6 -4 10 -73 10 -175z m-195 -22 c-3
-101 -7 -244 -10 -318 -2 -74 -5 -148 -5 -165 -1 -30 -4 -24 -83 204 -15 41
-33 81 -41 90 -14 14 -20 10 -61 -34 -38 -40 -44 -44 -35 -21 25 67 94 154
145 185 26 15 33 27 44 86 8 37 20 80 27 94 8 14 14 34 14 44 0 9 2 17 5 17 3
0 2 -82 0 -182z m212 -60 c-1 -46 -3 -9 -3 82 0 91 2 128 3 83 2 -46 2 -120 0
-165z m33 92 c0 -87 -4 -140 -10 -140 -6 0 -10 51 -10 133 0 117 3 147 17 147
2 0 3 -63 3 -140z m-1630 -101 c0 -138 -4 -228 -9 -224 -5 3 -9 66 -8 140 1
74 -1 135 -5 135 -4 0 -9 -62 -11 -137 -2 -107 -3 -89 -5 75 -1 122 2 211 7
208 5 -3 11 3 14 14 13 51 17 3 17 -211z m1680 115 c0 -52 -4 -94 -8 -94 -4 0
-7 36 -6 80 1 46 -2 80 -7 80 -6 0 -9 -38 -8 -90 1 -50 -1 -94 -5 -97 -3 -3
-6 46 -6 109 0 111 1 116 20 111 18 -5 20 -14 20 -99z m30 22 c0 -36 -4 -68
-10 -71 -6 -4 -10 20 -10 64 0 41 4 71 10 71 6 0 10 -28 10 -64z m-1793 -48
c-2 -18 -4 -4 -4 32 0 36 2 50 4 33 2 -18 2 -48 0 -65z m1810 30 c-2 -13 -4
-3 -4 22 0 25 2 35 4 23 2 -13 2 -33 0 -45z m-1857 -63 c0 -58 -4 -105 -9
-105 -5 0 -7 9 -4 20 3 11 1 20 -5 20 -6 0 -13 -21 -15 -47 -2 -27 -4 10 -5
80 -1 79 2 126 8 122 5 -3 7 -12 4 -19 -3 -8 0 -17 6 -21 6 -3 10 -3 9 2 -3
17 1 53 6 53 3 0 5 -47 5 -105z m29 33 c0 -40 -4 -80 -9 -88 -7 -10 -10 13
-10 73 0 48 4 87 9 87 5 0 9 -33 10 -72z m441 -95 c0 -89 -4 -143 -10 -143 -6
0 -10 59 -10 158 0 105 4 152 10 142 5 -8 10 -79 10 -157z m-520 66 c0 -51 -4
-78 -10 -74 -18 11 -12 155 7 155 2 0 3 -36 3 -81z m3168 13 c12 -37 35 -89
52 -115 l29 -47 -51 -102 c-28 -57 -60 -115 -70 -130 -21 -30 -54 -36 -90 -17
-11 6 -22 8 -25 5 -3 -3 7 -10 23 -16 68 -24 66 -22 40 -55 -23 -29 -24 -29
-67 -15 -24 7 -48 17 -54 22 -6 6 -3 7 8 3 11 -5 17 -2 17 8 0 23 -18 31 -36
16 -12 -10 -17 -8 -29 7 -8 10 -15 32 -15 48 l0 29 49 -44 c26 -24 51 -53 55
-64 5 -12 9 -15 12 -8 3 7 0 22 -7 35 -7 13 -13 33 -14 45 0 13 -5 27 -11 33
-7 7 -7 33 -2 78 5 37 6 83 3 102 -4 27 -3 32 5 20 9 -12 10 -11 5 7 -6 23 11
85 47 165 18 39 26 48 52 51 17 2 36 5 42 5 5 1 20 -29 32 -66z m-3201 -39
c-2 -21 -4 -6 -4 32 0 39 2 55 4 38 2 -18 2 -50 0 -70z m2415 -213 l2 -275 6
245 c5 227 6 215 8 -163 1 -252 -2 -406 -7 -402 -6 3 -8 14 -6 25 2 11 0 20
-5 20 -5 0 -11 -12 -13 -27 -2 -16 -4 179 -5 432 0 265 3 452 8 440 5 -11 10
-144 12 -295z m-2441 187 c-8 -8 -11 5 -11 44 0 72 14 86 18 18 2 -28 -2 -57
-7 -62z m-21 46 c0 -31 -3 -53 -7 -50 -3 4 -12 2 -20 -4 -11 -9 -13 -2 -13 40
0 34 4 50 11 46 6 -4 7 -19 4 -36 -4 -18 -3 -29 4 -29 6 0 11 19 11 45 0 25 2
45 5 45 3 0 5 -25 5 -57z m2020 -49 c0 -61 -4 -93 -10 -89 -11 7 -14 168 -3
178 12 13 13 7 13 -89z m-2070 -4 c0 -40 -4 -70 -10 -70 -11 0 -14 123 -3 133
12 13 13 7 13 -63z m260 -71 c0 -91 -4 -138 -10 -134 -17 11 -11 275 6 275 2
0 4 -63 4 -141z m1779 64 c-1 -32 -3 -50 -6 -40 -5 18 -5 18 -19 0 -12 -16
-13 -15 -14 20 0 38 15 51 24 20 3 -12 5 -9 4 7 0 37 1 50 7 50 3 0 4 -26 4
-57z m-2072 -45 c-2 -18 -4 -4 -4 32 0 36 2 50 4 33 2 -18 2 -48 0 -65z m750
44 c12 -26 61 -130 110 -232 49 -102 97 -207 107 -235 10 -27 27 -68 37 -91
10 -22 27 -65 39 -94 19 -48 280 -578 308 -625 7 -11 30 -60 52 -110 l39 -90
-35 -3 c-33 -3 -42 5 -198 165 -90 92 -183 191 -207 220 -24 29 -65 76 -90
105 l-47 53 -11 125 c-19 203 -59 466 -114 743 -12 64 -20 117 -17 117 3 0 15
-22 27 -48z m1655 -186 c-9 -75 -9 -69 -9 79 0 147 0 154 9 81 5 -48 5 -112 0
-160z m-1701 141 c1 -37 -1 -70 -5 -74 -3 -3 -6 29 -6 72 0 95 8 96 11 2z
m-721 3 c0 -22 -4 -40 -10 -40 -11 0 -14 63 -3 73 11 12 13 8 13 -33z m100
-545 c0 -379 -4 -585 -10 -585 -6 0 -11 154 -12 428 l-3 427 -5 -425 -5 -425
-1 555 c-1 305 1 545 3 533 7 -39 22 -25 21 20 0 50 1 57 7 57 3 0 5 -263 5
-585z m32 417 l2 -157 6 160 c4 119 6 69 7 -190 1 -336 1 -348 -15 -300 -13
41 -17 108 -19 353 -3 206 0 301 7 297 6 -4 11 -69 12 -163z m148 73 c0 -52
-3 -95 -7 -95 -5 0 -7 43 -5 95 2 52 5 95 8 95 2 0 4 -43 4 -95z m-208 53 c-9
-9 -12 -7 -12 12 0 19 3 21 12 12 9 -9 9 -15 0 -24z m1968 10 c0 -16 -3 -19
-11 -11 -6 6 -8 16 -5 22 11 17 16 13 16 -11z m-1860 -43 c0 -30 -4 -55 -10
-55 -5 0 -10 25 -10 55 0 30 5 55 10 55 6 0 10 -25 10 -55z m-210 -2 c0 -14
-3 -23 -7 -20 -3 4 -12 2 -20 -4 -8 -7 -13 -8 -13 -1 0 5 7 12 15 16 8 3 15 9
14 13 -2 13 1 23 6 23 3 0 5 -12 5 -27z m285 -32 c0 -33 -3 -63 -7 -67 -5 -4
-8 23 -8 59 0 37 3 67 8 67 4 0 7 -27 7 -59z m1559 43 c14 -5 16 -24 14 -123
l-2 -116 -3 113 c-2 66 -8 110 -13 107 -5 -3 -6 -13 -3 -22 4 -11 3 -14 -5 -9
-7 4 -12 18 -12 32 0 26 1 27 24 18z m48 -196 l2 -193 6 190 6 190 2 -259 c1
-143 0 -257 -3 -255 -2 3 -5 32 -6 65 -1 32 -8 68 -15 79 -17 24 -20 375 -4
375 6 0 11 -72 12 -192z m188 -368 c3 354 9 556 14 541 9 -23 10 -24 17 -5 4
10 8 -263 8 -608 1 -441 -2 -629 -10 -634 -8 -4 -10 154 -7 559 1 311 1 563
-1 561 -8 -7 -9 -78 -10 -607 -1 -323 -5 -526 -10 -522 -5 3 -13 0 -18 -7 -4
-7 -10 275 -13 627 l-5 640 -3 -642 c-1 -421 -5 -643 -12 -643 -6 0 -11 76
-12 203 l-2 202 -6 -210 c-3 -127 -6 48 -8 443 -1 429 1 652 8 652 6 0 11
-122 12 -342 l3 -343 2 342 c3 315 5 342 21 345 16 3 17 -32 22 -557 l5 -560
5 565z m-2000 20 c0 -347 -3 -530 -10 -530 -7 0 -10 183 -10 530 0 347 3 530
10 530 7 0 10 -183 10 -530z m-30 353 c0 -98 -4 -162 -9 -154 -5 7 -7 23 -5
35 2 11 2 15 -2 8 -16 -33 -24 11 -24 129 0 167 18 173 23 7 l3 -123 2 133 c1
72 4 132 7 132 3 0 5 -75 5 -167z m210 125 c0 -23 -3 -38 -7 -34 -9 9 -15 47
-9 63 10 24 16 13 16 -29z m1679 -330 c-1 -246 -5 -351 -10 -308 -11 89 -10
680 2 680 5 0 8 -155 8 -372z m44 -918 c-5 -8 -10 73 -13 180 l-6 195 -2 -193
c-1 -123 -6 -191 -12 -187 -6 4 -8 101 -5 263 2 141 5 429 5 640 0 266 3 382
11 382 7 0 9 -43 7 -136 -3 -74 -1 -137 4 -140 4 -3 9 61 10 143 2 81 4 -140
6 -492 1 -352 -1 -647 -5 -655z m656 938 c0 -193 -4 -318 -10 -318 -5 0 -9
130 -9 333 0 221 4 327 10 317 6 -9 10 -140 9 -332z m-2639 205 l0 -117 -20
22 c-17 18 -20 35 -20 112 0 53 4 89 9 85 5 -3 8 -19 6 -35 -2 -16 0 -32 6
-35 5 -4 9 13 9 39 0 25 2 46 5 46 3 0 5 -53 5 -117z m782 -316 l3 -422 5 370
c5 350 5 338 8 -228 1 -397 -1 -596 -8 -592 -5 3 -11 27 -12 53 l-1 47 -7 -50
c-4 -27 -8 244 -8 603 -1 433 1 651 8 647 6 -4 11 -160 12 -428z m840 410
c-90 -117 -90 -117 -104 -100 -8 11 -9 14 -1 10 8 -5 18 3 27 21 23 44 67 93
77 86 6 -3 6 -10 1 -17z m-1672 -78 c0 -51 -4 -78 -10 -74 -18 11 -12 155 7
155 2 0 3 -36 3 -81z m800 -559 c0 -427 -3 -640 -10 -640 -10 0 -12 766 -2
1128 7 311 12 134 12 -488z m1073 528 c10 -62 22 -138 27 -168 39 -211 60
-402 64 -571 5 -202 1 -221 -55 -314 -59 -98 -98 -134 -154 -144 -27 -5 -51
-9 -52 -8 -6 7 52 125 67 137 25 20 113 208 134 285 33 124 38 202 21 346 -27
233 -47 344 -71 393 -15 31 -20 156 -6 156 5 0 16 -51 25 -112z m-1956 20 c-2
-18 -4 -6 -4 27 0 33 2 48 4 33 2 -15 2 -42 0 -60z m35 25 l1 -58 7 60 7 60 1
-67 c2 -62 1 -66 -18 -61 -17 5 -20 14 -20 64 0 76 19 77 22 2z m-102 2 c0
-25 -4 -45 -10 -45 -5 0 -10 20 -10 45 0 25 5 45 10 45 6 0 10 -20 10 -45z
m17 -22 c-2 -16 -4 -5 -4 22 0 28 2 40 4 28 2 -13 2 -35 0 -50z m33 22 c0 -25
-4 -45 -10 -45 -5 0 -10 20 -10 45 0 25 5 45 10 45 6 0 10 -20 10 -45z m871
-588 c-1 -342 -5 -624 -7 -626 -2 -2 -4 281 -4 629 0 348 3 630 7 626 4 -4 6
-287 4 -629z m-951 580 c0 -36 -3 -43 -20 -43 -16 0 -20 7 -20 33 0 18 4 33 9
33 5 0 8 -11 5 -25 -2 -14 0 -25 6 -25 6 0 10 8 9 18 -2 26 0 52 6 52 3 0 5
-19 5 -43z m440 -258 c0 -197 -3 -298 -10 -294 -6 4 -10 115 -10 301 0 189 4
294 10 294 6 0 10 -107 10 -301z m480 -933 c-7 -7 -10 166 -8 557 2 312 0 567
-4 567 -5 0 -8 -253 -8 -561 0 -469 -2 -560 -13 -550 -8 6 -17 8 -20 4 -4 -3
-7 258 -7 580 0 378 4 587 10 587 6 0 11 -92 13 -242 l2 -243 4 255 c2 146 7
238 11 215 l7 -40 2 41 c0 22 4 44 9 48 4 4 8 -266 10 -600 1 -409 -1 -611 -8
-618z m-461 882 c-1 -183 -4 -319 -8 -303 -7 33 -3 635 4 635 3 0 5 -150 4
-332z m30 -50 c0 -218 -4 -365 -9 -353 -12 29 -12 725 0 725 7 0 10 -130 9
-372z m1886 -168 c-3 -266 -8 -486 -11 -489 -2 -2 -4 229 -3 515 0 347 4 509
10 489 6 -19 8 -215 4 -515z m522 456 c-2 -6 2 -17 10 -24 16 -16 19 -442 3
-442 -6 0 -11 77 -13 198 l-2 197 -3 -203 c-1 -112 -5 -201 -9 -199 -5 3 -6
130 -4 284 2 195 6 266 12 239 5 -22 8 -44 6 -50z m-2947 44 c0 -16 -4 -30
-10 -30 -5 0 -10 14 -10 30 0 17 5 30 10 30 6 0 10 -13 10 -30z m566 -113 c0
-90 5 -150 12 -164 15 -28 17 -586 2 -563 -5 8 -11 78 -12 155 l-2 140 -6
-115 c-4 -68 -7 50 -8 288 -1 221 1 402 6 402 4 0 7 -64 8 -143z m21 71 c-2
-13 -4 -3 -4 22 0 25 2 35 4 23 2 -13 2 -33 0 -45z m-620 5 c-3 -10 -5 -2 -5
17 0 19 2 27 5 18 2 -10 2 -26 0 -35z m653 11 c0 -13 -4 -24 -10 -24 -5 0 -10
14 -10 31 0 17 4 28 10 24 6 -3 10 -17 10 -31z m1089 27 c7 -5 10 -14 6 -20
-5 -9 -10 -9 -21 0 -26 22 -14 38 15 20z m-809 -571 c0 -373 -3 -570 -10 -570
-6 0 -11 126 -12 353 l-3 352 -5 -355 c-5 -339 -5 -330 -8 212 -2 532 -1 567
16 571 9 3 18 5 20 6 1 0 2 -255 2 -569z m2470 534 c0 -32 -1 -34 -16 -20 -9
10 -13 24 -9 36 10 32 25 23 25 -16z m-2733 4 c-3 -8 -6 -5 -6 6 -1 11 2 17 5
13 3 -3 4 -12 1 -19z m-687 -7 c0 -11 -4 -23 -10 -26 -6 -4 -10 5 -10 19 0 14
5 26 10 26 6 0 10 -9 10 -19z m149 -63 c-1 -46 -4 -73 -6 -60 -2 12 -9 19 -15
16 -6 -4 -14 0 -19 7 -7 11 -9 10 -9 -3 0 -10 -6 -18 -14 -18 -8 0 -17 -6 -19
-12 -3 -7 -6 19 -6 58 -1 64 1 72 19 77 18 5 20 0 22 -41 l2 -47 3 48 c5 63
21 60 26 -5 l3 -53 2 58 c1 31 4 57 7 57 3 0 4 -37 4 -82z m31 8 c0 -36 -4
-68 -10 -71 -6 -4 -10 20 -10 64 0 41 4 71 10 71 6 0 10 -28 10 -64z m19 -303
c-1 -203 -5 -354 -9 -338 -4 17 -8 22 -9 13 0 -10 -5 -18 -11 -18 -6 0 -10
100 -10 280 0 176 4 280 10 280 6 0 11 -82 13 -212 2 -198 3 -193 5 75 1 158
4 287 7 287 3 0 4 -165 4 -367z m32 314 l1 -32 8 30 c4 17 8 -139 9 -345 0
-274 -3 -370 -10 -356 -9 15 -13 16 -20 5 -5 -8 -9 146 -9 364 0 250 3 376 10
372 6 -3 11 -21 11 -38z m588 -414 c0 -265 -4 -450 -9 -438 -5 11 -9 41 -9 68
-1 26 -5 47 -11 47 -6 0 -10 135 -10 385 0 243 4 385 10 385 6 0 11 -66 13
-162 l3 -163 2 168 c1 92 4 167 7 167 3 0 5 -206 4 -457z m2686 446 c11 -17
-1 -21 -15 -4 -8 9 -8 15 -2 15 6 0 14 -5 17 -11z m-3554 -42 c-12 -12 -21
-16 -21 -9 0 7 4 12 9 12 5 0 13 10 17 23 5 14 9 17 12 8 2 -7 -5 -23 -17 -34z
m99 -22 c0 -37 -4 -65 -10 -65 -6 0 -10 28 -10 65 0 37 4 65 10 65 6 0 10 -28
10 -65z m719 -273 c-1 -360 -15 -420 -20 -87 l-3 200 -6 -170 c-5 -159 -6
-151 -8 110 -2 274 -2 281 18 282 20 2 20 -4 19 -335z m-749 256 c0 -51 -3
-68 -10 -58 -8 13 -10 12 -10 -2 0 -10 -4 -18 -10 -18 -6 0 -10 28 -10 65 0
75 17 88 23 18 3 -47 3 -47 5 10 3 82 12 70 12 -15z m700 -150 c0 -148 -4
-218 -10 -208 -13 20 -13 430 0 430 6 0 10 -81 10 -222z m1340 105 c32 -101
48 -126 52 -80 0 12 2 27 3 32 2 6 4 46 5 90 l2 80 14 -70 c7 -38 13 -82 13
-97 1 -15 -26 -94 -59 -174 -34 -81 -59 -148 -57 -151 4 -4 21 35 93 209 15
38 28 67 30 65 1 -1 10 -63 19 -137 29 -224 5 -372 -91 -566 l-49 -99 -8 50
c-4 28 -18 115 -31 195 -15 98 -20 151 -13 164 6 12 6 16 -1 12 -5 -3 -12 16
-16 46 -4 28 -16 77 -27 109 -15 42 -17 63 -10 76 16 32 62 266 59 306 -1 25
3 41 12 47 20 12 22 9 60 -107z m-1390 -5 c0 -77 -3 -108 -10 -98 -18 28 -12
210 7 210 2 0 3 -51 3 -112z m17 -130 c-1 -46 -3 -9 -3 82 0 91 2 128 3 83 2
-46 2 -120 0 -165z m2755 162 c18 -20 59 -50 117 -86 4 -3 -37 -59 -92 -127
-21 -26 -43 -45 -47 -42 -4 3 -11 58 -15 122 -3 65 -8 141 -10 168 -4 49 -4
50 10 20 7 -16 24 -41 37 -55z m-3162 -300 c0 -240 -4 -370 -10 -370 -6 0 -10
130 -10 370 0 240 4 370 10 370 6 0 10 -130 10 -370z m357 298 c-2 -13 -4 -3
-4 22 0 25 2 35 4 23 2 -13 2 -33 0 -45z m-667 -15 c-1 -51 -3 -64 -11 -50 -5
9 -7 22 -4 27 3 6 2 10 -4 10 -5 0 -12 -17 -14 -37 -3 -28 -4 -23 -5 19 -2 42
3 63 15 78 10 11 19 20 20 20 2 0 3 -30 3 -67z m360 -330 c0 -240 -3 -362 -10
-358 -6 4 -11 95 -12 233 l-2 227 -6 -225 c-5 -209 -6 -198 -8 149 -2 374 -2
374 18 356 19 -17 20 -31 20 -382z m2713 341 c-2 -6 0 -15 6 -19 7 -3 8 0 5 9
-3 9 -1 16 5 16 8 0 11 -55 11 -181 0 -102 -4 -178 -9 -175 -5 3 -8 51 -6 106
1 55 -2 100 -6 100 -5 0 -10 -48 -12 -107 -1 -62 -4 -22 -5 92 -1 120 2 194 7
186 5 -8 7 -20 4 -27z m-3124 -39 c1 -40 -2 -65 -8 -65 -7 0 -11 24 -11 58 0
49 5 72 15 72 1 0 3 -29 4 -65z m1242 -335 l4 -355 5 290 c3 160 7 269 10 244
3 -25 3 -228 0 -450 -3 -222 -7 -372 -10 -334 l-4 70 -3 -62 c-2 -35 -8 -63
-13 -63 -6 0 -10 201 -9 533 1 292 5 521 9 507 4 -14 9 -185 11 -380z m-783
-17 c-2 -240 -6 -337 -12 -313 -9 34 -10 34 -17 10 -4 -14 -7 137 -8 334 l-1
360 20 -22 c20 -21 20 -33 18 -369z m-248 373 c0 -3 -4 -8 -10 -11 -5 -3 -10
-1 -10 4 0 6 5 11 10 11 6 0 10 -2 10 -4z m-242 -58 l-1 -53 -6 45 c-6 43 -5
60 5 60 2 0 3 -24 2 -52z m212 -199 c0 -164 -3 -248 -10 -244 -6 4 -10 98 -10
251 0 156 4 244 10 244 6 0 10 -90 10 -251z m2390 -390 c-8 -17 -9 37 -5 190
3 118 6 269 7 335 2 67 4 -19 5 -190 2 -200 0 -320 -7 -335z m610 615 c0 -8 5
-14 10 -14 6 0 10 -53 10 -140 0 -133 -1 -140 -20 -140 -19 0 -20 7 -20 161 0
104 3 158 10 154 6 -3 10 -13 10 -21z m460 11 c16 -9 19 -14 9 -15 -8 0 -24 7
-35 15 -24 18 -7 19 26 0z m-3493 -347 c-1 -68 -3 -15 -3 117 0 132 2 187 3
123 2 -64 2 -172 0 -240z m83 80 c-1 -193 -4 -268 -11 -255 -6 9 -14 15 -20
12 -5 -4 -9 92 -9 249 0 253 1 262 33 265 4 1 7 -122 7 -271z m1472 262 c0 -5
1 -16 2 -22 1 -7 7 -19 14 -27 7 -7 11 -20 8 -28 -3 -8 -2 -12 3 -9 10 6 72
-128 74 -159 0 -11 0 -60 -1 -109 -2 -79 -4 -87 -18 -75 -18 14 -59 95 -94
182 -26 65 -34 197 -13 218 6 6 9 18 6 25 -3 8 0 14 6 14 6 0 12 -4 13 -10z
m-1602 -217 c-1 -173 -3 -204 -13 -185 -7 12 -16 19 -20 16 -4 -4 -7 74 -7
174 0 109 4 182 10 182 5 0 11 -33 13 -72 l3 -73 2 83 c1 45 4 82 7 82 3 0 5
-93 5 -207z m30 -8 c0 -137 -4 -215 -10 -215 -6 0 -10 78 -10 215 0 137 4 215
10 215 6 0 10 -78 10 -215z m-180 165 c0 -22 -4 -40 -10 -40 -11 0 -14 63 -3
73 11 12 13 8 13 -33z m100 -146 c0 -112 -3 -163 -10 -159 -11 7 -13 301 -3
318 11 18 13 -3 13 -159z m-32 4 l-2 -143 -6 135 c-3 74 -4 138 -2 143 10 23
12 -7 10 -135z m-112 66 c-20 -20 -21 -30 -1 -14 13 11 15 6 15 -36 0 -35 -3
-45 -10 -34 -5 8 -10 24 -11 35 l0 20 -9 -20 c-6 -15 -9 -6 -9 33 -1 30 3 51
8 47 5 -3 13 5 18 17 7 22 8 22 11 -5 2 -15 -3 -34 -12 -43z m94 -65 c0 -77
-4 -118 -10 -114 -6 4 -10 55 -10 121 0 69 4 114 10 114 6 0 10 -47 10 -121z
m2790 -24 c0 -161 -19 -189 -22 -32 l-2 102 -6 -105 c-6 -99 -6 -100 -8 -31
-1 41 -5 71 -8 68 -4 -3 -6 -30 -6 -59 1 -29 -3 -60 -8 -68 -7 -10 -10 5 -10
51 0 47 4 70 15 79 8 7 15 25 15 41 0 16 5 29 10 29 6 0 10 11 10 23 0 21 7
37 17 37 2 0 3 -61 3 -135z m-2823 -17 c-2 -29 -3 -8 -3 47 0 55 1 79 3 53 2
-26 2 -71 0 -100z m-17 52 c0 -40 -4 -70 -10 -70 -6 0 -10 30 -10 70 0 40 4
70 10 70 6 0 10 -30 10 -70z m3508 8 c-1 -61 -1 -61 -7 -18 -4 25 -5 53 -3 63
8 34 12 16 10 -45z m-3591 10 c-3 -7 -5 -2 -5 12 0 14 2 19 5 13 2 -7 2 -19 0
-25z m1808 -70 c42 -122 72 -184 101 -207 23 -18 24 -25 24 -132 0 -63 -3
-124 -6 -136 -5 -17 -33 31 -125 214 -118 233 -138 290 -101 279 22 -7 48 18
57 57 4 15 10 26 13 23 3 -3 19 -47 37 -98z m-925 -5 c0 -23 5 -45 10 -48 6
-4 10 -109 10 -283 -1 -231 -3 -274 -14 -260 -7 10 -16 15 -19 11 -4 -3 -7 9
-6 28 1 32 2 32 9 9 9 -28 13 -19 10 25 -1 17 -6 34 -11 39 -5 6 -9 130 -9
280 0 179 4 266 10 256 5 -8 10 -34 10 -57z m-163 -285 c3 -153 0 -228 -7
-228 -6 0 -11 49 -12 133 l-2 132 -6 -130 c-4 -98 -6 -61 -7 150 -1 271 -1
278 15 225 11 -41 16 -113 19 -282z m2693 262 c0 -16 -4 -30 -10 -30 -11 0
-14 43 -3 53 11 12 13 8 13 -23z m-31 -12 c-1 -18 -3 -25 -6 -15 -4 14 -8 16
-19 6 -20 -16 -17 1 4 22 23 24 22 24 21 -13z m58 12 c-5 -31 -17 -36 -17 -7
0 15 4 27 10 27 5 0 9 -9 7 -20z m21 -67 c-1 -42 -3 -53 -5 -30 -2 20 -8 37
-13 37 -5 0 -7 -6 -4 -13 2 -7 0 -31 -5 -52 -9 -39 -9 -38 -10 23 -1 49 2 62
14 62 8 0 15 9 15 20 0 11 2 20 5 20 3 0 4 -30 3 -67z m32 -3 c0 -16 -4 -32
-10 -35 -6 -4 -10 10 -10 35 0 25 4 39 10 35 6 -3 10 -19 10 -35z m-2070 -108
c0 -79 3 -112 10 -102 7 11 10 -7 11 -60 6 -282 5 -391 -2 -396 -5 -3 -10 94
-11 218 l-3 223 -2 -218 c-2 -133 -7 -217 -13 -217 -6 0 -10 125 -10 341 0
224 3 338 10 334 6 -4 10 -56 10 -123z m1990 62 c0 -78 -19 -79 -22 -1 -1 49
-2 49 -8 -18 l-6 -70 -2 72 c-2 68 2 79 31 82 4 1 7 -29 7 -65z m-180 46 c0
-5 -2 -10 -4 -10 -3 0 -8 5 -11 10 -3 6 -1 10 4 10 6 0 11 -4 11 -10z m130
-62 c0 -40 -5 -80 -10 -88 -7 -10 -10 12 -10 73 0 51 4 87 10 87 6 0 10 -31
10 -72z m-180 58 c0 -3 -4 -8 -10 -11 -5 -3 -10 -1 -10 4 0 6 5 11 10 11 6 0
10 -2 10 -4z m150 -88 c0 -61 -4 -88 -9 -78 -6 8 -7 18 -5 22 3 4 1 8 -5 8 -5
0 -12 -15 -14 -32 -2 -18 -5 11 -5 64 -2 87 0 97 15 91 11 -4 14 -3 9 5 -4 7
-2 12 3 12 7 0 11 -34 11 -92z m-231 -82 c1 -104 -2 -167 -9 -171 -7 -4 -10
49 -10 164 0 97 4 171 9 171 5 0 10 -72 10 -164z m171 -40 c-9 -8 -11 16 -9
89 3 133 13 145 17 21 2 -63 -1 -103 -8 -110z m-250 9 c0 -125 -3 -185 -11
-185 -7 0 -10 40 -8 120 1 66 0 123 -3 126 -3 3 -7 -54 -7 -127 -1 -73 -4
-135 -6 -138 -3 -2 -5 82 -5 187 0 173 2 191 18 195 9 3 18 5 20 6 1 0 2 -82
2 -184z m32 58 l2 -128 6 130 6 130 1 -175 c0 -96 -2 -166 -4 -155 -5 17 -7
15 -18 -10 -12 -26 -13 -6 -14 153 -1 115 3 182 9 182 6 0 11 -51 12 -127z
m196 12 l-2 -110 -6 105 -6 105 -2 -100 c-3 -150 -22 -157 -22 -8 0 116 1 122
20 120 19 -1 20 -8 18 -112z m-278 -90 c0 -123 -4 -195 -10 -195 -6 0 -10 69
-10 188 0 166 3 202 17 202 2 0 3 -88 3 -195z m209 128 c1 -37 4 -69 7 -72 3
-3 4 25 3 62 -1 37 1 70 4 74 4 3 7 -50 7 -118 -1 -101 -3 -120 -13 -104 -11
19 -12 17 -18 -15 -4 -19 -7 27 -8 103 0 75 3 137 8 137 4 0 9 -30 10 -67z
m-2248 -118 l3 -130 6 90 c5 68 6 44 6 -95 0 -117 -2 -161 -6 -120 l-7 65 -1
-52 c-1 -28 -6 -55 -12 -58 -7 -4 -10 77 -9 237 1 252 15 295 20 63z m1959
-38 c0 -136 -3 -206 -10 -202 -5 3 -11 57 -12 118 l-2 112 -6 -125 c-5 -113
-6 -105 -8 90 -2 210 -1 216 18 216 19 0 20 -7 20 -209z m30 21 c0 -108 -5
-200 -10 -208 -6 -10 -10 55 -10 193 0 131 4 207 10 207 6 0 10 -71 10 -192z
m17 -106 c-1 -53 -3 -7 -3 103 0 110 2 154 3 97 2 -57 2 -147 0 -200z m213
163 c0 -83 -4 -135 -10 -135 -6 0 -11 35 -12 83 l-2 82 -6 -95 c-6 -92 -6 -90
-8 53 -2 141 -1 147 18 147 19 0 20 -7 20 -135z m-2400 68 c0 -18 5 -33 10
-33 6 0 10 -59 10 -157 0 -94 -4 -152 -9 -144 -5 7 -14 10 -20 7 -8 -5 -11 48
-11 191 0 132 4 193 10 183 5 -8 10 -30 10 -47z m2080 -377 c-12 -12 -14 161
-2 280 6 69 7 57 10 -95 1 -110 -1 -178 -8 -185z m-2030 142 c0 -72 -4 -118
-10 -118 -6 0 -10 51 -10 133 0 89 3 127 10 117 5 -8 10 -68 10 -132z m682
120 c21 -32 116 -137 287 -316 80 -84 147 -157 149 -162 4 -10 -330 -2 -339 8
-4 4 -24 51 -45 104 -21 54 -40 96 -42 94 -2 -3 12 -45 32 -94 20 -49 36 -92
36 -96 0 -8 -52 -7 -67 2 -15 10 -24 212 -9 213 6 0 6 3 -1 6 -9 3 -13 27 -14
66 0 34 -3 92 -8 130 -7 71 -3 81 21 45z m-502 -195 c0 -76 -4 -123 -10 -123
-6 0 -10 52 -10 138 0 92 3 132 10 122 5 -8 10 -70 10 -137z m-163 -15 c-2
-29 -3 -6 -3 52 0 58 1 81 3 53 2 -29 2 -77 0 -105z m33 1 c0 -38 -4 -58 -10
-54 -5 3 -10 33 -10 66 0 38 4 58 10 54 6 -3 10 -33 10 -66z m149 -89 c-4 -23
-7 -4 -6 55 0 79 1 83 6 35 4 -30 4 -71 0 -90z m1706 -18 c-14 -14 -17 14 -9
85 l9 78 3 -79 c2 -43 0 -81 -3 -84z m102 46 c-3 -7 -5 -2 -5 12 0 14 2 19 5
13 2 -7 2 -19 0 -25z m-358 -58 c-1 -33 -7 -66 -13 -74 -6 -8 -30 -17 -54 -21
l-42 -7 52 81 c29 44 54 81 56 81 1 0 1 -27 1 -60z m-1427 15 c3 -13 1 -22 -3
-19 -9 5 -13 44 -5 44 2 0 6 -11 8 -25z"/>
<path d="M2320 4929 c0 -5 5 -7 10 -4 6 3 10 8 10 11 0 2 -4 4 -10 4 -5 0 -10
-5 -10 -11z"/>
<path d="M3005 4920 c-3 -6 1 -7 9 -4 18 7 21 14 7 14 -6 0 -13 -4 -16 -10z"/>
<path d="M3150 4921 c0 -5 5 -13 10 -16 6 -3 10 -2 10 4 0 5 -4 13 -10 16 -5
3 -10 2 -10 -4z"/>
<path d="M2170 4891 c0 -5 5 -13 10 -16 6 -3 10 -2 10 4 0 5 -4 13 -10 16 -5
3 -10 2 -10 -4z"/>
<path d="M2010 4870 c20 -13 33 -13 25 0 -3 6 -14 10 -23 10 -15 0 -15 -2 -2
-10z"/>
<path d="M2235 4850 c-3 -5 -2 -10 4 -10 5 0 13 5 16 10 3 6 2 10 -4 10 -5 0
-13 -4 -16 -10z"/>
<path d="M3068 4853 c7 -3 16 -2 19 1 4 3 -2 6 -13 5 -11 0 -14 -3 -6 -6z"/>
<path d="M2105 4840 c-3 -5 -1 -10 4 -10 6 0 11 5 11 10 0 6 -2 10 -4 10 -3 0
-8 -4 -11 -10z"/>
<path d="M2460 4839 c0 -5 5 -7 10 -4 6 3 10 8 10 11 0 2 -4 4 -10 4 -5 0 -10
-5 -10 -11z"/>
<path d="M2490 4840 c0 -5 5 -10 10 -10 6 0 10 5 10 10 0 6 -4 10 -10 10 -5 0
-10 -4 -10 -10z"/>
<path d="M3315 4799 c-4 -6 -5 -12 -2 -15 2 -3 7 2 10 11 7 17 1 20 -8 4z"/>
<path d="M2290 4790 c0 -5 5 -10 11 -10 5 0 7 5 4 10 -3 6 -8 10 -11 10 -2 0
-4 -4 -4 -10z"/>
<path d="M3195 4790 c3 -5 8 -10 11 -10 2 0 4 5 4 10 0 6 -5 10 -11 10 -5 0
-7 -4 -4 -10z"/>
<path d="M2464 4759 c0 -10 4 -19 8 -19 4 0 8 6 8 14 0 8 -4 17 -8 20 -4 2 -8
-4 -8 -15z"/>
<path d="M2495 4771 c-3 -5 -1 -12 5 -16 5 -3 10 1 10 9 0 18 -6 21 -15 7z"/>
<path d="M1885 4760 c3 -5 8 -10 11 -10 2 0 4 5 4 10 0 6 -5 10 -11 10 -5 0
-7 -4 -4 -10z"/>
<path d="M2280 4759 c0 -5 5 -7 10 -4 6 3 10 8 10 11 0 2 -4 4 -10 4 -5 0 -10
-5 -10 -11z"/>
<path d="M2665 4760 c-3 -5 -1 -10 4 -10 6 0 11 5 11 10 0 6 -2 10 -4 10 -3 0
-8 -4 -11 -10z"/>
<path d="M2063 4735 c0 -8 4 -12 9 -9 5 3 6 10 3 15 -9 13 -12 11 -12 -6z"/>
<path d="M2770 4720 c0 -5 5 -10 11 -10 5 0 7 5 4 10 -3 6 -8 10 -11 10 -2 0
-4 -4 -4 -10z"/>
<path d="M2735 4690 c3 -5 8 -10 11 -10 2 0 4 5 4 10 0 6 -5 10 -11 10 -5 0
-7 -4 -4 -10z"/>
<path d="M2150 4676 c0 -2 7 -7 16 -10 8 -3 12 -2 9 4 -6 10 -25 14 -25 6z"/>
<path d="M2975 4660 c3 -5 11 -10 16 -10 6 0 7 5 4 10 -3 6 -11 10 -16 10 -6
0 -7 -4 -4 -10z"/>
<path d="M2897 4653 c-12 -11 -8 -40 7 -52 11 -10 14 -9 12 1 -1 7 -5 18 -9
25 -9 14 8 27 23 18 6 -3 10 -14 10 -23 0 -15 2 -15 10 -2 15 23 -33 53 -53
33z"/>
<path d="M2265 4640 c-3 -5 -1 -10 4 -10 6 0 11 5 11 10 0 6 -2 10 -4 10 -3 0
-8 -4 -11 -10z"/>
<path d="M1960 4631 c0 -5 5 -13 10 -16 6 -3 10 -2 10 4 0 5 -4 13 -10 16 -5
3 -10 2 -10 -4z"/>
<path d="M3350 4630 c-13 -8 -12 -10 3 -10 9 0 17 5 17 10 0 12 -1 12 -20 0z"/>
<path d="M1880 4616 c0 -2 7 -7 16 -10 8 -3 12 -2 9 4 -6 10 -25 14 -25 6z"/>
<path d="M3105 4600 c-3 -5 -1 -10 4 -10 6 0 11 5 11 10 0 6 -2 10 -4 10 -3 0
-8 -4 -11 -10z"/>
<path d="M3020 4596 c0 -2 7 -7 16 -10 8 -3 12 -2 9 4 -6 10 -25 14 -25 6z"/>
<path d="M1765 4550 c-3 -5 -1 -10 4 -10 6 0 11 5 11 10 0 6 -2 10 -4 10 -3 0
-8 -4 -11 -10z"/>
<path d="M1796 4545 c-3 -8 -1 -15 4 -15 6 0 10 7 10 15 0 8 -2 15 -4 15 -2 0
-6 -7 -10 -15z"/>
<path d="M2930 4551 c0 -10 19 -25 25 -20 1 2 -3 10 -11 17 -8 7 -14 8 -14 3z"/>
<path d="M1910 4536 c0 -9 5 -16 10 -16 6 0 10 4 10 9 0 6 -4 13 -10 16 -5 3
-10 -1 -10 -9z"/>
<path d="M1945 4530 c-3 -5 -1 -10 4 -10 6 0 11 5 11 10 0 6 -2 10 -4 10 -3 0
-8 -4 -11 -10z"/>
<path d="M3165 4520 c1 -11 4 -22 8 -25 4 -3 5 -2 2 2 -3 3 1 11 8 17 7 6 10
10 8 9 -2 -2 -9 2 -16 7 -8 7 -11 4 -10 -10z"/>
<path d="M3255 4530 c-3 -5 -1 -10 4 -10 6 0 11 5 11 10 0 6 -2 10 -4 10 -3 0
-8 -4 -11 -10z"/>
<path d="M1975 4510 c3 -5 8 -10 11 -10 2 0 4 5 4 10 0 6 -5 10 -11 10 -5 0
-7 -4 -4 -10z"/>
<path d="M1895 4480 c-4 -6 -11 -8 -16 -5 -5 4 -9 2 -9 -4 0 -19 16 -19 28 0
7 10 10 19 8 19 -3 0 -8 -5 -11 -10z"/>
<path d="M4180 4439 c0 -11 5 -17 10 -14 6 3 10 13 10 21 0 8 -4 14 -10 14 -5
0 -10 -9 -10 -21z"/>
<path d="M3845 4410 c3 -5 8 -10 11 -10 2 0 4 5 4 10 0 6 -5 10 -11 10 -5 0
-7 -4 -4 -10z"/>
<path d="M1786 4385 c4 -8 8 -15 10 -15 2 0 4 7 4 15 0 8 -4 15 -10 15 -5 0
-7 -7 -4 -15z"/>
<path d="M3955 4390 c3 -5 8 -10 11 -10 2 0 4 5 4 10 0 6 -5 10 -11 10 -5 0
-7 -4 -4 -10z"/>
<path d="M3515 4340 c-3 -5 -1 -10 4 -10 6 0 11 5 11 10 0 6 -2 10 -4 10 -3 0
-8 -4 -11 -10z"/>
<path d="M3935 4310 c-3 -5 -1 -10 4 -10 6 0 11 5 11 10 0 6 -2 10 -4 10 -3 0
-8 -4 -11 -10z"/>
<path d="M3410 4299 c0 -5 5 -7 10 -4 6 3 10 8 10 11 0 2 -4 4 -10 4 -5 0 -10
-5 -10 -11z"/>
<path d="M4230 4290 c0 -5 4 -10 9 -10 6 0 13 5 16 10 3 6 -1 10 -9 10 -9 0
-16 -4 -16 -10z"/>
<path d="M3255 4250 c3 -5 8 -10 11 -10 2 0 4 5 4 10 0 6 -5 10 -11 10 -5 0
-7 -4 -4 -10z"/>
<path d="M3420 4238 c0 -9 5 -20 11 -23 17 -11 18 -2 3 19 -12 17 -14 17 -14
4z"/>
<path d="M4026 4237 c3 -10 9 -15 12 -12 3 3 0 11 -7 18 -10 9 -11 8 -5 -6z"/>
<path d="M4316 4226 c3 -9 11 -16 16 -16 13 0 5 23 -10 28 -7 2 -10 -2 -6 -12z"/>
<path d="M3910 4211 c0 -5 5 -13 10 -16 6 -3 10 -2 10 4 0 5 -4 13 -10 16 -5
3 -10 2 -10 -4z"/>
<path d="M3650 4170 c0 -5 5 -10 11 -10 5 0 7 5 4 10 -3 6 -8 10 -11 10 -2 0
-4 -4 -4 -10z"/>
<path d="M1495 4159 c-11 -16 -1 -19 13 -3 7 8 8 14 3 14 -5 0 -13 -5 -16 -11z"/>
<path d="M3605 4110 c3 -5 8 -10 11 -10 2 0 4 5 4 10 0 6 -5 10 -11 10 -5 0
-7 -4 -4 -10z"/>
<path d="M3860 4089 c0 -5 5 -7 10 -4 6 3 10 8 10 11 0 2 -4 4 -10 4 -5 0 -10
-5 -10 -11z"/>
<path d="M3976 4075 c8 -37 10 -39 17 -21 3 8 -1 22 -9 33 -13 17 -14 16 -8
-12z"/>
<path d="M3500 4079 c0 -5 5 -7 10 -4 6 3 10 8 10 11 0 2 -4 4 -10 4 -5 0 -10
-5 -10 -11z"/>
<path d="M3620 4070 c0 -5 5 -10 10 -10 6 0 10 5 10 10 0 6 -4 10 -10 10 -5 0
-10 -4 -10 -10z"/>
<path d="M4495 4070 c3 -5 11 -10 16 -10 6 0 7 5 4 10 -3 6 -11 10 -16 10 -6
0 -7 -4 -4 -10z"/>
<path d="M3800 4050 c0 -5 4 -10 9 -10 6 0 13 5 16 10 3 6 -1 10 -9 10 -9 0
-16 -4 -16 -10z"/>
<path d="M1228 4043 c7 -3 16 -2 19 1 4 3 -2 6 -13 5 -11 0 -14 -3 -6 -6z"/>
<path d="M1280 4038 c0 -10 -4 -18 -10 -18 -5 0 -10 -5 -10 -11 0 -6 9 -8 21
-4 12 4 19 3 16 -2 -3 -5 -2 -15 4 -23 5 -8 9 -10 9 -5 1 6 3 25 5 44 2 23 0
29 -6 20 -8 -12 -11 -12 -19 1 -8 13 -10 12 -10 -2z"/>
<path d="M3840 4041 c0 -6 4 -13 10 -16 6 -3 7 1 4 9 -7 18 -14 21 -14 7z"/>
<path d="M3730 4009 c0 -5 5 -7 10 -4 6 3 10 8 10 11 0 2 -4 4 -10 4 -5 0 -10
-5 -10 -11z"/>
<path d="M1250 3971 c0 -5 7 -15 17 -22 15 -13 15 -12 4 9 -12 23 -21 28 -21
13z"/>
<path d="M1416 3947 c3 -10 9 -15 12 -12 3 3 0 11 -7 18 -10 9 -11 8 -5 -6z"/>
<path d="M893 3943 c-18 -7 -16 -23 2 -23 8 0 15 7 15 15 0 8 -1 15 -2 14 -2
0 -9 -3 -15 -6z"/>
<path d="M1035 3930 c3 -5 8 -10 11 -10 2 0 4 5 4 10 0 6 -5 10 -11 10 -5 0
-7 -4 -4 -10z"/>
<path d="M4430 3909 c0 -5 5 -7 10 -4 6 3 10 8 10 11 0 2 -4 4 -10 4 -5 0 -10
-5 -10 -11z"/>
<path d="M810 3896 c0 -2 7 -7 16 -10 8 -3 12 -2 9 4 -6 10 -25 14 -25 6z"/>
<path d="M1065 3870 c-3 -5 -2 -10 4 -10 5 0 13 5 16 10 3 6 2 10 -4 10 -5 0
-13 -4 -16 -10z"/>
<path d="M1270 3866 c7 -7 13 -7 20 0 6 6 3 10 -10 10 -13 0 -16 -4 -10 -10z"/>
<path d="M4445 3870 c-3 -5 -1 -10 4 -10 6 0 11 5 11 10 0 6 -2 10 -4 10 -3 0
-8 -4 -11 -10z"/>
<path d="M4640 3876 c0 -2 7 -9 15 -16 13 -11 14 -10 9 4 -5 14 -24 23 -24 12z"/>
<path d="M1235 3841 c-3 -6 -12 -8 -18 -5 -8 5 -8 3 1 -7 9 -10 15 -10 24 -1
6 6 9 14 6 17 -3 4 -9 1 -13 -4z"/>
<path d="M1240 3795 c7 -9 15 -13 17 -11 7 7 -7 26 -19 26 -6 0 -6 -6 2 -15z"/>
<path d="M1195 3730 c3 -5 8 -10 11 -10 2 0 4 5 4 10 0 6 -5 10 -11 10 -5 0
-7 -4 -4 -10z"/>
<path d="M4635 3710 c-3 -5 -1 -10 4 -10 6 0 11 5 11 10 0 6 -2 10 -4 10 -3 0
-8 -4 -11 -10z"/>
<path d="M1270 3699 c0 -5 5 -7 10 -4 6 3 10 8 10 11 0 2 -4 4 -10 4 -5 0 -10
-5 -10 -11z"/>
<path d="M4660 3671 c0 -6 5 -13 10 -16 6 -3 10 -2 10 4 0 5 8 12 18 14 10 3
6 5 -10 6 -16 0 -28 -3 -28 -8z"/>
<path d="M4491 3624 c0 -11 3 -14 6 -6 3 7 2 16 -1 19 -3 4 -6 -2 -5 -13z"/>
<path d="M4697 3626 c-4 -10 1 -20 13 -26 26 -14 30 -13 29 8 0 12 -2 13 -6 3
-4 -10 -9 -8 -18 9 -10 19 -13 20 -18 6z"/>
<path d="M1262 3616 c7 -8 15 -12 17 -11 5 6 -10 25 -20 25 -5 0 -4 -6 3 -14z"/>
<path d="M4095 3590 c-3 -5 -1 -10 4 -10 6 0 11 5 11 10 0 6 -2 10 -4 10 -3 0
-8 -4 -11 -10z"/>
<path d="M4816 3555 c4 -8 11 -15 16 -15 6 0 5 6 -2 15 -7 8 -14 15 -16 15 -2
0 -1 -7 2 -15z"/>
<path d="M890 3530 c0 -5 5 -10 11 -10 5 0 7 5 4 10 -3 6 -8 10 -11 10 -2 0
-4 -4 -4 -10z"/>
<path d="M4535 3510 c3 -5 8 -10 11 -10 2 0 4 5 4 10 0 6 -5 10 -11 10 -5 0
-7 -4 -4 -10z"/>
<path d="M975 3500 c-8 -13 -1 -24 14 -19 6 3 7 10 2 18 -6 10 -10 10 -16 1z"/>
<path d="M4017 3499 c7 -7 15 -10 18 -7 3 3 -2 9 -12 12 -14 6 -15 5 -6 -5z"/>
<path d="M1030 3480 c0 -5 5 -10 11 -10 5 0 7 5 4 10 -3 6 -8 10 -11 10 -2 0
-4 -4 -4 -10z"/>
<path d="M1241 3464 c0 -11 3 -14 6 -6 3 7 2 16 -1 19 -3 4 -6 -2 -5 -13z"/>
<path d="M1170 3422 c0 -5 7 -9 15 -9 8 0 12 4 9 9 -3 4 -9 8 -15 8 -5 0 -9
-4 -9 -8z"/>
<path d="M1090 3404 c0 -8 5 -12 10 -9 6 3 10 10 10 16 0 5 -4 9 -10 9 -5 0
-10 -7 -10 -16z"/>
<path d="M4590 3420 c-8 -26 -7 -41 2 -32 6 6 8 16 5 24 -3 7 -6 11 -7 8z"/>
<path d="M505 3380 c3 -5 8 -10 11 -10 2 0 4 5 4 10 0 6 -5 10 -11 10 -5 0 -7
-4 -4 -10z"/>
<path d="M4685 3360 c3 -5 8 -10 11 -10 2 0 4 5 4 10 0 6 -5 10 -11 10 -5 0
-7 -4 -4 -10z"/>
<path d="M4707 3273 c-4 -3 -7 -11 -7 -17 0 -6 5 -5 12 2 6 6 9 14 7 17 -3 3
-9 2 -12 -2z"/>
<path d="M4734 3251 c0 -11 6 -17 13 -14 6 3 9 11 6 19 -7 20 -19 17 -19 -5z"/>
<path d="M695 3250 c-3 -5 -1 -10 4 -10 6 0 11 5 11 10 0 6 -2 10 -4 10 -3 0
-8 -4 -11 -10z"/>
<path d="M4650 3230 c0 -5 5 -10 11 -10 5 0 7 5 4 10 -3 6 -8 10 -11 10 -2 0
-4 -4 -4 -10z"/>
<path d="M660 3190 c0 -6 7 -10 15 -10 8 0 15 2 15 4 0 2 -7 6 -15 10 -8 3
-15 1 -15 -4z"/>
<path d="M435 3170 c3 -5 8 -10 11 -10 2 0 4 5 4 10 0 6 -5 10 -11 10 -5 0 -7
-4 -4 -10z"/>
<path d="M4770 3160 c0 -5 5 -10 10 -10 6 0 10 5 10 10 0 6 -4 10 -10 10 -5 0
-10 -4 -10 -10z"/>
<path d="M3353 3086 c-38 -12 -41 -21 -13 -36 12 -6 20 -7 20 -1 0 5 12 13 26
18 41 14 9 32 -33 19z"/>
<path d="M550 3080 c0 -5 5 -10 10 -10 6 0 10 5 10 10 0 6 -4 10 -10 10 -5 0
-10 -4 -10 -10z"/>
<path d="M819 3088 c-5 -9 -5 -48 -1 -43 6 6 11 45 5 45 -2 0 -4 -1 -4 -2z"/>
<path d="M4590 3070 c0 -5 5 -10 11 -10 5 0 7 5 4 10 -3 6 -8 10 -11 10 -2 0
-4 -4 -4 -10z"/>
<path d="M4236 2993 c-3 -3 -78 -12 -246 -28 -30 -3 -64 -7 -75 -9 -11 -3 -26
-5 -32 -5 -7 -1 -13 -6 -13 -12 0 -12 20 -11 280 15 85 9 160 16 166 16 5 0
19 7 30 15 17 13 13 14 -44 12 -35 -1 -64 -3 -66 -4z"/>
<path d="M1170 2960 c0 -5 5 -10 10 -10 6 0 10 5 10 10 0 6 -4 10 -10 10 -5 0
-10 -4 -10 -10z"/>
<path d="M605 2940 c-3 -5 -1 -10 4 -10 6 0 11 5 11 10 0 6 -2 10 -4 10 -3 0
-8 -4 -11 -10z"/>
<path d="M505 2901 c-3 -5 -1 -12 5 -16 5 -3 10 1 10 9 0 18 -6 21 -15 7z"/>
<path d="M1385 2880 c3 -5 13 -10 21 -10 8 0 14 5 14 10 0 6 -9 10 -21 10 -11
0 -17 -4 -14 -10z"/>
<path d="M1336 2862 c-3 -5 1 -9 9 -9 8 0 12 4 9 9 -3 4 -7 8 -9 8 -2 0 -6 -4
-9 -8z"/>
<path d="M770 2825 c0 -2 7 -8 15 -15 12 -10 15 -10 15 2 0 8 -7 15 -15 15 -8
0 -15 -1 -15 -2z"/>
<path d="M980 2821 c0 -6 4 -13 10 -16 6 -3 7 1 4 9 -7 18 -14 21 -14 7z"/>
<path d="M500 2810 c0 -5 5 -10 11 -10 5 0 7 5 4 10 -3 6 -8 10 -11 10 -2 0
-4 -4 -4 -10z"/>
<path d="M580 2800 c0 -5 5 -10 11 -10 5 0 7 5 4 10 -3 6 -8 10 -11 10 -2 0
-4 -4 -4 -10z"/>
<path d="M1145 2790 c-3 -5 1 -10 9 -10 9 0 16 5 16 10 0 6 -4 10 -9 10 -6 0
-13 -4 -16 -10z"/>
<path d="M1020 2779 c0 -5 5 -7 10 -4 6 3 10 8 10 11 0 2 -4 4 -10 4 -5 0 -10
-5 -10 -11z"/>
<path d="M497 2749 c4 -13 8 -18 11 -10 2 7 -1 18 -6 23 -8 8 -9 4 -5 -13z"/>
<path d="M640 2760 c-9 -6 -10 -10 -3 -10 6 0 15 5 18 10 8 12 4 12 -15 0z"/>
<path d="M1075 2760 c3 -5 11 -10 16 -10 6 0 7 5 4 10 -3 6 -11 10 -16 10 -6
0 -7 -4 -4 -10z"/>
<path d="M310 2740 c0 -5 5 -10 10 -10 6 0 10 5 10 10 0 6 -4 10 -10 10 -5 0
-10 -4 -10 -10z"/>
<path d="M606 2737 c3 -10 9 -15 12 -12 3 3 0 11 -7 18 -10 9 -11 8 -5 -6z"/>
<path d="M940 2720 c0 -5 5 -10 10 -10 6 0 10 5 10 10 0 6 -4 10 -10 10 -5 0
-10 -4 -10 -10z"/>
<path d="M945 2660 c-3 -5 -1 -10 4 -10 6 0 11 5 11 10 0 6 -2 10 -4 10 -3 0
-8 -4 -11 -10z"/>
<path d="M590 2630 c0 -5 5 -10 10 -10 6 0 10 5 10 10 0 6 -4 10 -10 10 -5 0
-10 -4 -10 -10z"/>
<path d="M2465 2601 c10 -18 65 -43 80 -37 22 8 114 -35 108 -51 -3 -7 2 -13
12 -13 9 0 13 5 10 10 -4 6 7 15 24 21 17 6 29 15 26 20 -3 4 -16 3 -29 -2
-19 -9 -33 -7 -71 10 -26 12 -61 21 -77 21 -16 0 -43 7 -60 16 -16 9 -27 11
-23 5z"/>
<path d="M2666 2596 c3 -9 11 -16 16 -16 13 0 5 23 -10 28 -7 2 -10 -2 -6 -12z"/>
<path d="M2715 2510 c3 -5 8 -10 11 -10 2 0 4 5 4 10 0 6 -5 10 -11 10 -5 0
-7 -4 -4 -10z"/>
<path d="M2763 2453 c7 -11 25 -215 32 -342 2 -57 8 -107 11 -110 4 -3 4 66 1
154 -6 167 -23 305 -39 305 -5 0 -7 -3 -5 -7z"/>
<path d="M2790 1773 c1 -48 29 -123 30 -78 0 45 -13 125 -21 125 -5 0 -9 -21
-9 -47z"/>
<path d="M2820 1631 c0 -6 4 -13 10 -16 6 -3 7 1 4 9 -7 18 -14 21 -14 7z"/>
<path d="M4305 3870 c-4 -7 -2 -17 4 -23 9 -9 11 -8 6 6 -7 18 10 24 18 7 3
-6 4 -5 3 2 -3 16 -23 21 -31 8z"/>
<path d="M4224 3720 c0 -63 1 -89 3 -57 2 31 2 83 0 115 -2 31 -3 5 -3 -58z"/>
<path d="M2261 3254 c0 -11 3 -14 6 -6 3 7 2 16 -1 19 -3 4 -6 -2 -5 -13z"/>
<path d="M3550 3436 c0 -2 7 -9 15 -16 13 -11 14 -10 9 4 -5 14 -24 23 -24 12z"/>
<path d="M1903 865 c0 -22 2 -30 4 -17 2 12 2 30 0 40 -3 9 -5 -1 -4 -23z"/>
<path d="M1901 534 c0 -11 3 -14 6 -6 3 7 2 16 -1 19 -3 4 -6 -2 -5 -13z"/>
<path d="M2004 2162 l-2 -67 8 55 c5 30 5 60 2 67 -4 6 -8 -18 -8 -55z"/>
<path d="M2002 2070 c0 -14 2 -19 5 -12 2 6 2 18 0 25 -3 6 -5 1 -5 -13z"/>
<path d="M3420 2071 c0 -6 5 -13 10 -16 6 -3 10 1 10 9 0 9 -4 16 -10 16 -5 0
-10 -4 -10 -9z"/>
<path d="M3555 2240 c3 -5 8 -10 11 -10 2 0 4 5 4 10 0 6 -5 10 -11 10 -5 0
-7 -4 -4 -10z"/>
<path d="M3551 2064 c0 -11 3 -14 6 -6 3 7 2 16 -1 19 -3 4 -6 -2 -5 -13z"/>
<path d="M3553 1980 c0 -30 2 -43 4 -27 2 15 2 39 0 55 -2 15 -4 2 -4 -28z"/>
<path d="M3608 2054 c-2 -119 0 -218 5 -221 4 -2 7 95 7 216 0 122 -2 221 -5
221 -2 0 -6 -97 -7 -216z"/>
<path d="M3607 1813 c-8 -14 -8 -213 0 -213 4 0 9 50 11 110 3 102 1 122 -11
103z"/>
<path d="M3600 1563 c0 -14 3 -23 7 -19 10 10 11 46 1 46 -4 0 -8 -12 -8 -27z"/>
<path d="M3580 702 l5 -57 3 49 c2 27 0 52 -5 57 -4 4 -6 -18 -3 -49z"/>
<path d="M3575 620 c-3 -5 -1 -10 4 -10 6 0 11 5 11 10 0 6 -2 10 -4 10 -3 0
-8 -4 -11 -10z"/>
<path d="M3570 580 c0 -19 3 -21 12 -12 9 9 9 15 0 24 -9 9 -12 7 -12 -12z"/>
<path d="M1870 2184 c0 -8 5 -12 10 -9 6 3 10 10 10 16 0 5 -4 9 -10 9 -5 0
-10 -7 -10 -16z"/>
<path d="M1872 2100 c0 -14 2 -19 5 -12 2 6 2 18 0 25 -3 6 -5 1 -5 -13z"/>
<path d="M2055 1931 c-3 -5 -1 -12 5 -16 5 -3 10 1 10 9 0 18 -6 21 -15 7z"/>
<path d="M2055 1887 c-4 -10 -5 -21 -1 -24 10 -10 18 4 13 24 -4 17 -4 17 -12
0z"/>
<path d="M3738 2073 c5 -76 10 -83 11 -15 0 34 -2 62 -7 62 -4 0 -6 -21 -4
-47z"/>
<path d="M3860 2040 c0 -5 5 -10 11 -10 5 0 7 5 4 10 -3 6 -8 10 -11 10 -2 0
-4 -4 -4 -10z"/>
<path d="M3917 1483 c-4 -3 -7 -11 -7 -17 0 -6 5 -5 12 2 6 6 9 14 7 17 -3 3
-9 2 -12 -2z"/>
<path d="M3910 1350 c0 -51 2 -91 4 -89 7 7 9 169 2 176 -3 3 -6 -36 -6 -87z"/>
<path d="M3893 1270 c0 -25 2 -35 4 -22 2 12 2 32 0 45 -2 12 -4 2 -4 -23z"/>
<path d="M3781 1070 c0 -32 2 -40 9 -29 5 9 6 28 0 45 -8 27 -8 26 -9 -16z"/>
<path d="M3835 1060 c-3 -5 -1 -10 4 -10 6 0 11 5 11 10 0 6 -2 10 -4 10 -3 0
-8 -4 -11 -10z"/>
<path d="M1798 1835 c-2 -130 0 -244 4 -253 4 -9 7 97 7 236 1 138 -1 252 -4
252 -2 0 -6 -106 -7 -235z"/>
<path d="M1743 1905 c0 -27 2 -38 4 -22 2 15 2 37 0 50 -2 12 -4 0 -4 -28z"/>
<path d="M1612 1835 c-1 -19 2 -35 6 -35 4 0 9 16 10 35 2 19 -1 35 -6 35 -5
0 -9 -16 -10 -35z"/>
<path d="M3968 1243 c5 -140 9 -146 11 -15 0 61 -3 112 -7 112 -4 0 -6 -44 -4
-97z"/>
<path d="M1487 1673 c-11 -10 -8 -93 3 -93 6 0 10 23 10 50 0 51 -1 55 -13 43z"/>
<path d="M1482 1510 c0 -19 2 -27 5 -17 2 9 2 25 0 35 -3 9 -5 1 -5 -18z"/>
<path d="M1542 1430 c0 -19 2 -27 5 -17 2 9 2 25 0 35 -3 9 -5 1 -5 -18z"/>
<path d="M1542 1320 c0 -14 2 -19 5 -12 2 6 2 18 0 25 -3 6 -5 1 -5 -13z"/>
<path d="M3483 1630 c0 -25 2 -35 4 -22 2 12 2 32 0 45 -2 12 -4 2 -4 -23z"/>
<path d="M3402 1000 c0 -14 2 -19 5 -12 2 6 2 18 0 25 -3 6 -5 1 -5 -13z"/>
<path d="M3393 936 c0 -18 3 -24 9 -18 7 7 7 16 0 28 -8 14 -9 13 -9 -10z"/>
<path d="M3392 860 c0 -19 2 -27 5 -17 2 9 2 25 0 35 -3 9 -5 1 -5 -18z"/>
<path d="M3451 474 c0 -11 3 -14 6 -6 3 7 2 16 -1 19 -3 4 -6 -2 -5 -13z"/>
<path d="M3340 1390 c0 -5 5 -10 11 -10 5 0 7 5 4 10 -3 6 -8 10 -11 10 -2 0
-4 -4 -4 -10z"/>
<path d="M3340 1075 c0 -159 2 -286 5 -283 7 6 7 559 0 566 -3 3 -5 -124 -5
-283z"/>
<path d="M1355 1560 c-3 -5 -1 -10 4 -10 6 0 11 5 11 10 0 6 -2 10 -4 10 -3 0
-8 -4 -11 -10z"/>
<path d="M1354 1525 c3 -23 12 -26 13 -5 1 11 -2 20 -7 20 -4 0 -7 -7 -6 -15z"/>
<path d="M2152 500 c0 -19 2 -27 5 -17 2 9 2 25 0 35 -3 9 -5 1 -5 -18z"/>
<path d="M2034 905 c0 -93 2 -133 3 -88 2 45 2 122 0 170 -1 48 -3 12 -3 -82z"/>
<path d="M2032 680 c0 -14 2 -19 5 -12 2 6 2 18 0 25 -3 6 -5 1 -5 -13z"/>
<path d="M2031 634 c0 -11 3 -14 6 -6 3 7 2 16 -1 19 -3 4 -6 -2 -5 -13z"/>
<path d="M2032 580 c0 -14 2 -19 5 -12 2 6 2 18 0 25 -3 6 -5 1 -5 -13z"/>
<path d="M4041 1454 c0 -11 3 -14 6 -6 3 7 2 16 -1 19 -3 4 -6 -2 -5 -13z"/>
<path d="M1661 1236 c-1 -26 2 -37 9 -30 6 6 6 21 1 39 -9 30 -9 30 -10 -9z"/>
<path d="M1663 1085 c0 -38 2 -53 4 -32 2 20 2 52 0 70 -2 17 -4 1 -4 -38z"/>
<path d="M1978 1408 c-3 -68 -1 -130 3 -138 5 -8 9 47 9 123 0 75 -2 137 -4
137 -2 0 -6 -55 -8 -122z"/>
<path d="M1970 1179 c0 -5 5 -7 10 -4 6 3 10 8 10 11 0 2 -4 4 -10 4 -5 0 -10
-5 -10 -11z"/>
<path d="M1125 1490 c-7 -11 -3 -92 4 -85 5 5 9 95 5 95 -2 0 -6 -4 -9 -10z"/>
<path d="M1233 900 c0 -25 2 -35 4 -22 2 12 2 32 0 45 -2 12 -4 2 -4 -23z"/>
<path d="M1284 1275 c0 -88 2 -123 3 -77 2 46 2 118 0 160 -1 42 -3 5 -3 -83z"/>
<path d="M1281 944 c0 -11 3 -14 6 -6 3 7 2 16 -1 19 -3 4 -6 -2 -5 -13z"/>
<path d="M1853 1095 c0 -33 2 -45 4 -27 2 18 2 45 0 60 -2 15 -4 0 -4 -33z"/>
<path d="M1845 980 c3 -5 8 -10 11 -10 2 0 4 5 4 10 0 6 -5 10 -11 10 -5 0 -7
-4 -4 -10z"/>
<path d="M1840 950 c0 -5 5 -10 10 -10 6 0 10 5 10 10 0 6 -4 10 -10 10 -5 0
-10 -4 -10 -10z"/>
<path d="M1841 834 c0 -11 3 -14 6 -6 3 7 2 16 -1 19 -3 4 -6 -2 -5 -13z"/>
<path d="M1842 780 c0 -19 2 -27 5 -17 2 9 2 25 0 35 -3 9 -5 1 -5 -18z"/>
<path d="M1796 1433 c-6 -14 -5 -15 5 -6 7 7 10 15 7 18 -3 3 -9 -2 -12 -12z"/>
<path d="M1790 1318 c0 -49 5 -47 13 5 3 20 2 37 -4 37 -5 0 -9 -19 -9 -42z"/>
<path d="M3165 1074 c-84 -186 -107 -273 -84 -315 7 -13 23 -53 36 -89 19 -53
22 -57 17 -25 -3 22 -13 58 -21 80 -27 71 -27 106 2 191 15 43 40 108 56 143
16 35 27 66 25 69 -3 2 -17 -22 -31 -54z"/>
<path d="M3051 944 c-6 -15 -9 -29 -7 -32 3 -2 10 8 16 23 14 36 7 43 -9 9z"/>
<path d="M995 1400 c-3 -5 -1 -10 4 -10 6 0 11 5 11 10 0 6 -2 10 -4 10 -3 0
-8 -4 -11 -10z"/>
<path d="M1350 1378 c0 -19 2 -20 10 -8 13 19 13 30 0 30 -5 0 -10 -10 -10
-22z"/>
<path d="M1352 1290 c0 -14 2 -19 5 -12 2 6 2 18 0 25 -3 6 -5 1 -5 -13z"/>
<path d="M1352 1190 c0 -19 2 -27 5 -17 2 9 2 25 0 35 -3 9 -5 1 -5 -18z"/>
<path d="M4095 1310 c0 -27 3 -50 7 -50 5 0 8 23 8 50 0 28 -3 50 -8 50 -4 0
-7 -22 -7 -50z"/>
<path d="M2213 585 c0 -27 2 -38 4 -22 2 15 2 37 0 50 -2 12 -4 0 -4 -28z"/>
<path d="M2212 510 c0 -14 2 -19 5 -12 2 6 2 18 0 25 -3 6 -5 1 -5 -13z"/>
<path d="M1412 1260 c0 -14 2 -19 5 -12 2 6 2 18 0 25 -3 6 -5 1 -5 -13z"/>
<path d="M1402 755 c0 -16 2 -22 5 -12 2 9 2 23 0 30 -3 6 -5 -1 -5 -18z"/>
<path d="M4151 1215 c-1 -60 -4 -120 -5 -133 -2 -13 1 -19 6 -14 5 5 7 65 5
133 l-3 124 -3 -110z"/>
<path d="M1183 1310 c0 -25 2 -35 4 -22 2 12 2 32 0 45 -2 12 -4 2 -4 -23z"/>
<path d="M1176 1204 c-4 -20 -5 -38 -2 -41 2 -3 8 11 12 31 3 21 4 39 1 42 -2
3 -8 -11 -11 -32z"/>
<path d="M1172 1120 c0 -14 2 -19 5 -12 2 6 2 18 0 25 -3 6 -5 1 -5 -13z"/>
<path d="M1171 1064 c0 -11 3 -14 6 -6 3 7 2 16 -1 19 -3 4 -6 -2 -5 -13z"/>
<path d="M1171 1004 c0 -11 3 -14 6 -6 3 7 2 16 -1 19 -3 4 -6 -2 -5 -13z"/>
<path d="M1172 895 c0 -16 2 -22 5 -12 2 9 2 23 0 30 -3 6 -5 -1 -5 -18z"/>
<path d="M1722 1015 c0 -16 2 -22 5 -12 2 9 2 23 0 30 -3 6 -5 -1 -5 -18z"/>
<path d="M1530 1000 c0 -16 2 -30 4 -30 2 0 6 14 8 30 3 17 1 30 -4 30 -4 0
-8 -13 -8 -30z"/>
<path d="M4140 970 c0 -5 5 -10 10 -10 6 0 10 5 10 10 0 6 -4 10 -10 10 -5 0
-10 -4 -10 -10z"/>
<path d="M4140 904 c0 -14 4 -23 10 -19 6 3 10 15 10 26 0 10 -4 19 -10 19 -5
0 -10 -12 -10 -26z"/>
<path d="M3832 910 c0 -17 3 -30 7 -30 10 0 11 49 1 55 -4 2 -7 -9 -8 -25z"/>
<path d="M4010 805 c1 -26 2 -28 11 -12 8 14 8 22 0 30 -8 8 -11 3 -11 -18z"/>
<path d="M1771 624 c0 -11 3 -14 6 -6 3 7 2 16 -1 19 -3 4 -6 -2 -5 -13z"/>
<path d="M3705 925 c4 -38 15 -43 15 -7 0 18 -4 32 -9 32 -5 0 -8 -11 -6 -25z"/>
<path d="M3962 895 c0 -16 2 -22 5 -12 2 9 2 23 0 30 -3 6 -5 -1 -5 -18z"/>
<path d="M1591 834 c0 -11 3 -14 6 -6 3 7 2 16 -1 19 -3 4 -6 -2 -5 -13z"/>
<path d="M1592 740 c0 -14 2 -19 5 -12 2 6 2 18 0 25 -3 6 -5 1 -5 -13z"/>
</g>
</svg>
